<?xml version="1.0" encoding="UTF-8"?>
<svg width="1393px" height="1088px" viewBox="0 0 1393 1088" version="1.1" xmlns="http://www.w3.org/2000/svg" xmlns:xlink="http://www.w3.org/1999/xlink">
    <!-- Generator: Sketch 60.1 (88133) - https://sketch.com -->
    <title>3</title>
    <desc>Created with Sketch.</desc>
    <defs>
        <path d="M547.152087,234.323462 C668.161292,215.742752 856.472959,139.712603 1039.6029,109.432114 C1222.73284,79.1516252 1402.49987,149.889496 1458.16607,302.968666 C1513.83227,456.047835 1470.20987,615.777891 1441.6209,687.949783 C1413.03194,760.121676 1406.14386,837.403979 1345.61351,953.370776 C1305.25994,1030.68197 1184.65786,1089.00813 983.807269,1128.34925 C854.29057,1150.6243 746.240585,1185.36544 659.657312,1232.57267 C529.782404,1303.38351 163.281922,1324.42744 181.636684,987.542749 C193.351854,866.890844 193.348255,750.139038 147.578452,679.413638 C67.3884409,530.289011 20.9001976,237.666745 274.061202,211.445377 C405.127592,198.128825 426.142882,252.904172 547.152087,234.323462 Z" id="path-1"></path>
        <circle id="path-3" cx="165" cy="165" r="165"></circle>
        <circle id="path-5" cx="57.5" cy="57.5" r="57.5"></circle>
        <polygon id="path-7" points="37.155589 2.87170766 43.6912885 40.1840025 34.3615385 62.9760177 17.0037458 50.7335938 5.58948929 12.6257014"></polygon>
        <polygon id="path-9" points="11.493253 0 0 41.1576897 5.74662651 61.4942529 24.783462 49.219541 40.6253637 11.4349332"></polygon>
        <polygon id="path-11" points="246.214325 63.2536236 145.520054 68.5489268 61.5514363 225.068966 0 188.317863 94.8969219 0"></polygon>
        <path d="M157.504844,20.4550175 C130.038277,14.2363199 101.179548,8.27695571 70.9286583,2.57692504 C25.5523234,-5.97312096 -13.1278224,4.00445961 4.24307711,74.7997243 C20.4203494,126.513609 52.0036272,203.279753 98.9929106,305.098156 L172.408229,273.720582 L88.1148294,96.0535184 L140.884874,114.964715 C189.369076,130.547696 217.743262,127.040773 226.007432,104.443948 C234.271601,81.8471236 239.345071,66.946884 241.227842,59.7432296 L198.486712,7.93630022 L157.504844,20.4550175 Z" id="path-13"></path>
        <polygon id="path-15" points="8.87666431 31.3966056 11.8367614 62.0363117 65.1430348 13.2715132"></polygon>
        <path d="M-5.68434189e-14,36.8611365 C20.5529962,24.9663647 39.8972761,13.9248082 58.0328395,3.73646709 C76.8876668,-5.69825614 112.018194,3.23974141 123.857279,24.8485058 C135.696364,46.4572702 130.918724,61.8306806 128.555469,84.6462272 C124.025299,121.383854 115.553083,157.45706 103.13882,192.865847 L20.2055357,151.798722 L31.8044144,96.7653969 L10.6384847,100.558404 L-5.68434189e-14,36.8611365 Z" id="path-17"></path>
    </defs>
    <g id="页面-1" stroke="none" stroke-width="1" fill="none" fill-rule="evenodd">
        <g id="画板备份" transform="translate(-4358.000000, -11770.000000)">
            <g id="3" transform="translate(4232.000000, 11633.000000)">
                <g id="33备份">
                    <g id="底">
                        <mask id="mask-2" fill="white">
                            <use xlink:href="#path-1"></use>
                        </mask>
                        <use id="蒙版" fill="#FFF2D6" transform="translate(784.490242, 688.998873) rotate(9.000000) translate(-784.490242, -688.998873) " xlink:href="#path-1"></use>
                        <path d="M1382.64925,617.706978 C1384.90989,617.706978 1386.74269,615.904069 1386.74291,613.680576 C1386.74306,612.198247 1386.61705,560.78383 1386.36488,459.437324 C1381.15937,560.784378 1378.55654,612.19907 1378.55639,613.681399 C1378.55617,615.904892 1380.3886,617.706978 1382.64925,617.706978 Z" id="椭圆形" fill="#FFDF98" mask="url(#mask-2)" transform="translate(1382.649653, 538.572151) scale(-1, 1) rotate(-48.000000) translate(-1382.649653, -538.572151) "></path>
                        <path d="M306.697458,404.838317 C308.958102,404.838317 310.790897,403.035408 310.791121,400.811915 C310.79127,399.329586 310.66526,347.915169 310.413093,246.568663 C305.207584,347.915717 302.604755,399.330409 302.604606,400.812738 C302.604382,403.036231 304.436815,404.838317 306.697458,404.838317 Z" id="椭圆形备份-42" fill="#FFDF98" mask="url(#mask-2)" transform="translate(306.697863, 325.703490) scale(-1, 1) rotate(-48.000000) translate(-306.697863, -325.703490) "></path>
                        <path d="M842.367137,1065.14872 C843.874233,1065.14872 845.096092,1063.98822 845.096236,1062.55701 C845.096332,1061.60286 845.012207,1028.50853 844.843861,963.273994 C841.373756,1028.50889 839.638655,1061.60341 839.638559,1062.55755 C839.638415,1063.98877 840.860041,1065.14872 842.367137,1065.14872 Z" id="椭圆形备份-43" fill="#FFDF98" mask="url(#mask-2)" transform="translate(842.367398, 1014.211358) scale(-1, 1) rotate(-48.000000) translate(-842.367398, -1014.211358) "></path>
                        <path d="M784.190856,431.219476 C786.4515,431.219476 788.284295,429.416567 788.284519,427.193074 C788.284667,425.710745 788.158658,374.296328 787.90649,272.949822 C782.700981,374.296876 780.098152,425.711568 780.098003,427.193897 C780.09778,429.41739 781.930212,431.219476 784.190856,431.219476 Z" id="椭圆形备份-40" fill="#FFDF98" mask="url(#mask-2)" transform="translate(784.191261, 352.084649) scale(-1, 1) rotate(-48.000000) translate(-784.191261, -352.084649) "></path>
                        <path d="M851.49431,266.565103 C853.252589,266.565103 854.677805,265.073701 854.67762,263.233569 C854.677497,262.006814 854.571191,219.456931 854.358704,135.583918 C850.326332,219.456504 848.310207,262.006174 848.310331,263.232929 C848.310516,265.073061 849.736032,266.565103 851.49431,266.565103 Z" id="椭圆形备份-41" fill="#FFDF98" mask="url(#mask-2)" transform="translate(851.493975, 201.074511) rotate(48.000000) translate(-851.493975, -201.074511) "></path>
                        <circle id="椭圆形" fill="#FFE6AE" mask="url(#mask-2)" cx="798.5" cy="249.5" r="3.5"></circle>
                        <ellipse id="椭圆形" fill="#FFDF98" mask="url(#mask-2)" cx="1310.5" cy="229" rx="259.5" ry="260"></ellipse>
                        <circle id="椭圆形备份-44" fill="#FFDF98" mask="url(#mask-2)" cx="226.5" cy="978.5" r="154.5"></circle>
                        <circle id="椭圆形备份-55" fill="#FFDF98" mask="url(#mask-2)" cx="1299" cy="992" r="144"></circle>
                        <circle id="椭圆形" fill="#FFF2D6" mask="url(#mask-2)" cx="151.5" cy="905.5" r="23.5"></circle>
                        <circle id="椭圆形备份-48" fill="#FFF2D6" mask="url(#mask-2)" cx="240.5" cy="991.5" r="12.5"></circle>
                        <circle id="椭圆形备份-50" fill="#FFF2D6" mask="url(#mask-2)" cx="175.5" cy="1083.5" r="7.5"></circle>
                        <circle id="椭圆形备份-49" fill="#FFF2D6" mask="url(#mask-2)" cx="345.5" cy="881.5" r="12.5"></circle>
                        <circle id="椭圆形备份-47" fill="#FFDF98" mask="url(#mask-2)" cx="381" cy="1181" r="23"></circle>
                        <circle id="椭圆形备份-51" fill="#FFE6AE" mask="url(#mask-2)" cx="291.5" cy="776.5" r="7.5"></circle>
                        <circle id="椭圆形备份-46" fill="#FFDF98" mask="url(#mask-2)" cx="331.5" cy="538.5" r="36.5"></circle>
                        <circle id="椭圆形备份-45" fill="#FFDF98" mask="url(#mask-2)" cx="475.5" cy="1073.5" r="43.5"></circle>
                        <circle id="椭圆形备份-52" fill="#FFE6AE" mask="url(#mask-2)" cx="1111.5" cy="978.5" r="43.5"></circle>
                        <path d="M521.459898,1057.0177 C526.828948,1057.95156 530.240638,1059.20576 531.860087,1060.88663 C533.682948,1062.77863 533.252899,1065.06095 531.046029,1067.25329 C527.660968,1070.61607 519.610288,1074.46185 507.837956,1078.63126 L507.30029,1078.821 C487.602908,1085.74735 457.538382,1093.33673 443.698192,1095.28893 L443.283785,1095.34636 C435.148882,1096.45292 429.804146,1096.17436 427.093978,1094.35877 C423.996482,1092.2837 424.416432,1088.64661 427.817917,1083.91257 C428.189284,1083.39571 428.911646,1083.27612 429.431357,1083.64544 C429.951069,1084.01476 430.071326,1084.73315 429.69996,1085.25 C426.953683,1089.07216 426.694437,1091.31743 428.386312,1092.45084 C430.465514,1093.84374 435.378715,1094.09981 442.970315,1093.06715 L443.799215,1092.95021 C457.660818,1090.92815 487.169749,1083.45967 506.529183,1076.65216 L507.554863,1076.28892 C518.731337,1072.30244 526.398231,1068.61897 529.411274,1065.62576 C530.825216,1064.22113 530.995984,1063.31485 530.189871,1062.47816 C529.010341,1061.25389 525.976715,1060.13867 521.061384,1059.28373 C520.432175,1059.17429 520.011312,1058.5783 520.121358,1057.95256 C520.224931,1057.36362 520.761878,1056.95822 521.349285,1057.00343 L521.459898,1057.0177 Z" id="路径-85" fill="#FFE6AE" fill-rule="nonzero" mask="url(#mask-2)"></path>
                        <circle id="椭圆形" fill="#FFF2D6" mask="url(#mask-2)" cx="1444.5" cy="399.5" r="23.5"></circle>
                        <circle id="椭圆形备份-38" fill="#FFF2D6" mask="url(#mask-2)" cx="1271.5" cy="189.5" r="58.5"></circle>
                        <circle id="椭圆形备份-39" fill="#FFF2D6" mask="url(#mask-2)" cx="1121" cy="243" r="15"></circle>
                        <circle id="椭圆形备份-36" fill="#FFE6AE" mask="url(#mask-2)" cx="919" cy="376" r="78"></circle>
                        <g id="编组-52" mask="url(#mask-2)" fill="#FFDF98">
                            <g transform="translate(930.000000, 191.000000)">
                                <ellipse id="椭圆形备份-37" fill-rule="evenodd" cx="30.7191913" cy="23.5" rx="23.4722222" ry="23.5"></ellipse>
                                <path d="M53.8515527,11.8527698 C61.0761336,11.4017402 64.8477625,12.4143661 64.9824956,15.2039629 C65.0929431,17.4907362 62.3268616,20.3288737 57.3189924,23.5934106 C47.5225641,29.9795202 31.3744716,36.5118126 18.6471671,38.9232016 C9.48662388,40.6588114 3.80419496,40.6588114 1.37965218,38.7448787 C-1.36529019,36.5780228 0.0576960419,32.7259707 5.00732197,27.315411 C5.3440768,26.9472959 5.91513404,26.9221965 6.28281403,27.2593498 C6.65049401,27.5965032 6.67556381,28.1682362 6.33880898,28.5363513 C2.04041935,33.2350283 0.973770749,36.1224674 2.49757428,37.325357 C4.34177739,38.7811699 9.6864751,38.7811699 18.3114392,37.1470341 C30.8061524,34.7797131 46.7338017,28.3365952 56.3338043,22.0785319 C60.7786436,19.1810238 63.2447064,16.6507204 63.1790473,15.2912729 C63.1193278,14.0548034 60.1898246,13.2682756 53.9639218,13.6569579 C53.4662979,13.6880245 53.0377394,13.3093277 53.0067095,12.8111149 C52.9756797,12.3129021 53.3539288,11.8838364 53.8515527,11.8527698 Z" id="路径-24" fill-rule="nonzero"></path>
                            </g>
                        </g>
                        <g id="编组-52备份-2" mask="url(#mask-2)" fill="#FFDF98">
                            <g transform="translate(428.500000, 252.500000) rotate(60.000000) translate(-428.500000, -252.500000) translate(396.000000, 229.000000)">
                                <ellipse id="椭圆形备份-37" fill-rule="evenodd" cx="30.7191913" cy="23.5" rx="23.4722222" ry="23.5"></ellipse>
                                <path d="M53.8515527,11.8527698 C61.0761336,11.4017402 64.8477625,12.4143661 64.9824956,15.2039629 C65.0929431,17.4907362 62.3268616,20.3288737 57.3189924,23.5934106 C47.5225641,29.9795202 31.3744716,36.5118126 18.6471671,38.9232016 C9.48662388,40.6588114 3.80419496,40.6588114 1.37965218,38.7448787 C-1.36529019,36.5780228 0.0576960419,32.7259707 5.00732197,27.315411 C5.3440768,26.9472959 5.91513404,26.9221965 6.28281403,27.2593498 C6.65049401,27.5965032 6.67556381,28.1682362 6.33880898,28.5363513 C2.04041935,33.2350283 0.973770749,36.1224674 2.49757428,37.325357 C4.34177739,38.7811699 9.6864751,38.7811699 18.3114392,37.1470341 C30.8061524,34.7797131 46.7338017,28.3365952 56.3338043,22.0785319 C60.7786436,19.1810238 63.2447064,16.6507204 63.1790473,15.2912729 C63.1193278,14.0548034 60.1898246,13.2682756 53.9639218,13.6569579 C53.4662979,13.6880245 53.0377394,13.3093277 53.0067095,12.8111149 C52.9756797,12.3129021 53.3539288,11.8838364 53.8515527,11.8527698 Z" id="路径-24" fill-rule="nonzero"></path>
                            </g>
                        </g>
                        <path d="M1009.8537,1016.50781 C1015.39259,1016.934 1020.40169,1017.01107 1024.881,1016.73901 C1029.36031,1016.46694 1035.30526,1014.64796 1042.71584,1011.28207 C1038.85415,1018.67303 1036.8009,1024.38371 1036.5561,1028.41411 C1036.3113,1032.44451 1036.59295,1037.65819 1037.40104,1044.05515 C1031.90258,1042.62271 1026.99221,1042.03775 1022.66993,1042.30028 C1018.34766,1042.56281 1012.33367,1044.91936 1004.62796,1049.36995 C1008.61955,1041.03863 1010.74184,1034.79037 1010.99483,1030.62518 C1011.24781,1026.45998 1010.86744,1021.75419 1009.8537,1016.50781 Z" id="矩形" fill="#FFDF98" mask="url(#mask-2)" transform="translate(1023.671902, 1030.326010) rotate(-45.000000) translate(-1023.671902, -1030.326010) "></path>
                        <path d="M1446.31839,495.485126 C1451.85727,495.911326 1456.86637,495.988393 1461.34568,495.716328 C1465.82499,495.444263 1471.76994,493.625284 1479.18053,490.259391 C1475.31884,497.650355 1473.26559,503.361036 1473.02079,507.391433 C1472.77599,511.42183 1473.05764,516.635509 1473.86573,523.03247 C1468.36727,521.600031 1463.4569,521.015075 1459.13462,521.277602 C1454.81234,521.540129 1448.79835,523.896685 1441.09265,528.347271 C1445.08424,520.015948 1447.20653,513.767689 1447.45952,509.602497 C1447.7125,505.437304 1447.33212,500.731514 1446.31839,495.485126 Z" id="矩形备份-51" fill="#FFDF98" mask="url(#mask-2)" transform="translate(1460.136590, 509.303331) rotate(-45.000000) translate(-1460.136590, -509.303331) "></path>
                    </g>
                    <g id="编组-53" transform="translate(239.000000, 681.000000)">
                        <circle id="椭圆形备份-54" fill="#A0FFE7" cx="146.5" cy="152.5" r="120.5"></circle>
                        <circle id="椭圆形" fill="#FF6A6A" cx="138.5" cy="134.5" r="120.5"></circle>
                        <path d="M120.5,-1.5 C53.1212605,-1.5 -1.5,53.1212605 -1.5,120.5 C-1.5,187.878739 53.1212605,242.5 120.5,242.5 C187.878739,242.5 242.5,187.878739 242.5,120.5 C242.5,53.1212605 187.878739,-1.5 120.5,-1.5 Z M120.5,1.5 C186.221885,1.5 239.5,54.7781148 239.5,120.5 C239.5,186.221885 186.221885,239.5 120.5,239.5 C54.7781148,239.5 1.5,186.221885 1.5,120.5 C1.5,54.7781148 54.7781148,1.5 120.5,1.5 Z" id="椭圆形备份-53" fill="#FFFFFF" fill-rule="nonzero"></path>
                    </g>
                    <g id="编组-9" transform="translate(272.000000, 323.000000)">
                        <g id="椭圆形-+-椭圆形-蒙版" transform="translate(58.099391, 1.000000)">
                            <mask id="mask-4" fill="white">
                                <use xlink:href="#path-3"></use>
                            </mask>
                            <use id="蒙版" fill="#A0FFE7" xlink:href="#path-3"></use>
                            <ellipse id="椭圆形" fill="#FFDF80" mask="url(#mask-4)" cx="104.5" cy="131" rx="34.5" ry="28"></ellipse>
                            <ellipse id="椭圆形" fill="#FFDF80" mask="url(#mask-4)" transform="translate(272.000000, 55.000000) rotate(36.000000) translate(-272.000000, -55.000000) " cx="272" cy="55" rx="53" ry="41"></ellipse>
                            <ellipse id="椭圆形" fill="#57E3BF" mask="url(#mask-4)" cx="240" cy="306" rx="12" ry="14"></ellipse>
                            <circle id="椭圆形" fill="#FF6A6A" mask="url(#mask-4)" cx="22.5" cy="96.5" r="22.5"></circle>
                            <circle id="椭圆形" fill="#FF6A6A" mask="url(#mask-4)" cx="216.5" cy="163.5" r="11.5"></circle>
                            <ellipse id="椭圆形" fill="#57E3BF" mask="url(#mask-4)" cx="96.5" cy="239" rx="12.5" ry="11"></ellipse>
                        </g>
                        <path d="M232.099391,6 C323.226374,6 397.099391,79.8730163 397.099391,171 C397.099391,262.126984 323.226374,336 232.099391,336 C140.972407,336 67.0993905,262.126984 67.0993905,171 C67.0993905,79.8730163 140.972407,6 232.099391,6 Z M232.099391,10 C143.181546,10 71.0993905,82.0821553 71.0993905,171 C71.0993905,259.917845 143.181546,332 232.099391,332 C321.017235,332 393.099391,259.917845 393.099391,171 C393.099391,82.0821553 321.017235,10 232.099391,10 Z" id="椭圆形" fill="#000000" fill-rule="nonzero"></path>
                        <path d="M372.849727,82.7282316 C426.828553,75.9368462 458.385994,83.5738228 467.160799,102.317036 C474.531303,118.060625 463.77276,139.613137 443.280745,154.613816 C421.345711,170.670821 359.022475,203.157353 295.690546,230.193241 C213.001249,265.492634 135.242475,289.590764 74.1951693,295.989105 C28.1298087,300.817194 2.76242566,294.632816 -1.41138424,276.543264 C-5.47438601,258.933961 11.5731669,231.153099 49.487634,192.597689 C50.2621089,191.810122 51.5283944,191.799508 52.3159618,192.573983 C53.1035292,193.348458 53.1141427,194.614744 52.3396678,195.402311 C15.3948063,232.971724 -1.14179829,259.919939 2.48621369,275.64397 C6.00341753,290.88775 29.6022195,296.640961 73.778215,292.010895 C134.350979,285.662291 211.766258,261.670613 294.12009,226.514428 C357.195498,199.588046 419.279159,167.226395 440.918036,151.386184 C460.051648,137.379891 469.911751,117.627215 463.538141,104.013016 C455.7372,87.3500025 425.780047,80.1002996 373.349054,86.6969434 C372.253124,86.8348286 371.25292,86.0581802 371.115035,84.9622507 C370.977149,83.8663212 371.753798,82.8661168 372.849727,82.7282316 Z" id="路径-295" fill="#000000" fill-rule="nonzero"></path>
                        <g id="编组-12备份" transform="translate(391.099391, 40.000000) rotate(-13.000000) translate(-391.099391, -40.000000) translate(356.099391, 8.000000)">
                            <path d="M15.4898009,16.032658 C21.8893673,16.5259269 27.676774,16.6157357 32.8520208,16.3020844 C38.0272676,15.988433 44.8956416,13.8877383 53.4571429,10 C48.9965638,18.5387533 46.6251655,25.1364239 46.342948,29.7930116 C46.0607306,34.4495994 46.3869368,40.4734035 47.3215667,47.8644239 C40.9685537,46.2085756 35.2951398,45.5319792 30.301325,45.8346346 C25.3075102,46.1372901 18.3594495,48.8590785 9.45714286,54 C14.0676567,44.3747975 16.5187417,37.1560333 16.8103978,32.3437074 C17.1020539,27.5313814 16.6618549,22.094365 15.4898009,16.032658 Z" id="矩形" fill="#A0FFE7" transform="translate(31.457143, 32.000000) rotate(-45.000000) translate(-31.457143, -32.000000) "></path>
                            <path d="M24.5383884,17.6666231 C25.4685912,23.0833571 25.8014869,28.0051959 25.5330473,32.43445 C25.2721008,36.7400667 23.4160267,42.7298974 19.9730212,50.4613544 C27.1632724,46.6547597 32.9664623,44.6082617 37.4359792,44.3373819 C42.0296728,44.0589762 47.1494117,44.5783297 52.7979683,45.8885961 C52.0543835,39.3886676 51.8108179,33.996793 52.071092,29.702269 C52.3250643,25.5117275 54.1317611,19.9716207 57.4789213,13.0310735 C50.5081206,15.9290797 44.7473963,17.5218076 40.1681601,17.7993371 C35.449824,18.0852969 30.2403572,18.0407006 24.5383884,17.6666231 Z" id="矩形备份-17" stroke="#000000" stroke-width="3" transform="translate(38.682540, 32.000000) rotate(-45.000000) translate(-38.682540, -32.000000) "></path>
                        </g>
                        <path d="M9.09939051,142 C14.0699533,142 18.0993905,146.029437 18.0993905,151 C18.0993905,155.970563 14.0699533,160 9.09939051,160 C4.12882776,160 0.0993905126,155.970563 0.0993905126,151 C0.0993905126,146.029437 4.12882776,142 9.09939051,142 Z M9.09939051,145 C5.78568201,145 3.09939051,147.686292 3.09939051,151 C3.09939051,154.313708 5.78568201,157 9.09939051,157 C12.413099,157 15.0993905,154.313708 15.0993905,151 C15.0993905,147.686292 12.413099,145 9.09939051,145 Z" id="椭圆形" fill="#000000" fill-rule="nonzero"></path>
                        <path d="M47.0993905,41 C49.8608143,41 52.0993905,43.2385763 52.0993905,46 C52.0993905,48.7614237 49.8608143,51 47.0993905,51 C44.3379668,51 42.0993905,48.7614237 42.0993905,46 C42.0993905,43.2385763 44.3379668,41 47.0993905,41 Z M47.0993905,44 C45.994821,44 45.0993905,44.8954305 45.0993905,46 C45.0993905,47.1045695 45.994821,48 47.0993905,48 C48.20396,48 49.0993905,47.1045695 49.0993905,46 C49.0993905,44.8954305 48.20396,44 47.0993905,44 Z" id="椭圆形" fill="#000000" fill-rule="nonzero"></path>
                    </g>
                    <g id="编组-4" transform="translate(498.000000, 461.147180)">
                        <rect id="矩形备份-16" fill="#FF6A6A" x="0" y="41" width="675" height="414"></rect>
                        <path d="M720,-1.5 C720.779696,-1.5 721.420449,-0.905111917 721.493133,-0.144460011 L721.5,0 L721.5,413 C721.5,413.828427 720.828427,414.5 720,414.5 C719.220304,414.5 718.579551,413.905112 718.506867,413.14446 L718.5,413 L718.5,1.5 L49.5,1.5 L49.5,79.1938144 C49.5,79.9735106 48.9051119,80.6142631 48.14446,80.6869479 L48,80.6938144 C47.2203039,80.6938144 46.5795513,80.0989263 46.5068666,79.3382744 L46.5,79.1938144 L46.5,0 C46.5,-0.779696117 47.0948881,-1.42044868 47.85554,-1.49313342 L48,-1.5 L720,-1.5 Z" id="路径-282" fill="#020202" fill-rule="nonzero"></path>
                        <circle id="椭圆形备份-9" fill="#FF6A6A" cx="73" cy="23" r="8"></circle>
                        <circle id="椭圆形备份-10" fill="#FFA14A" cx="97" cy="23" r="8"></circle>
                        <circle id="椭圆形备份-11" fill="#71C36F" cx="121" cy="23" r="8"></circle>
                    </g>
                    <g id="编组-3" transform="translate(431.000000, 540.147180)">
                        <rect id="矩形" fill="#FFDF80" x="0" y="29" width="675" height="413"></rect>
                        <circle id="椭圆形" fill="#FF6A6A" cx="35" cy="65" r="8"></circle>
                        <circle id="椭圆形备份-7" fill="#FFA14A" cx="59" cy="65" r="8"></circle>
                        <circle id="椭圆形备份-8" fill="#71C36F" cx="83" cy="65" r="8"></circle>
                        <rect id="矩形" fill="#FFFFFF" x="68" y="103" width="53" height="273"></rect>
                        <rect id="矩形备份-9" fill="#FFFFFF" x="137" y="171" width="54" height="205"></rect>
                        <rect id="矩形备份-10" fill="#FFFFFF" x="206" y="85" width="54" height="291"></rect>
                        <rect id="矩形备份-11" fill="#FFFFFF" x="275" y="179" width="54" height="197"></rect>
                        <rect id="矩形备份-14" fill="#FFFFFF" x="483" y="179" width="55" height="197"></rect>
                        <rect id="矩形备份-15" fill="#FFFFFF" x="553" y="141" width="54" height="235"></rect>
                        <rect id="矩形备份-12" fill="#FFFFFF" x="345" y="141" width="53" height="235"></rect>
                        <rect id="矩形备份-13" fill="#FFFFFF" x="413" y="110" width="55" height="266"></rect>
                        <path d="M622.662958,110.538356 C623.470201,110.352213 624.2755,110.855714 624.461644,111.662958 C624.647787,112.470201 624.144286,113.2755 623.337042,113.461644 C594.349392,120.145944 572.227324,144.2438 556.990597,185.954778 L556.530985,187.224138 L556.492057,187.321713 L555.437569,189.702353 C538.235685,228.2902 522.082571,252.377676 506.821788,262.013866 C490.940582,272.041814 476.07852,266.501956 462.769325,245.918433 L462.366492,245.290086 C443.64395,215.837483 412.805194,199.981917 381.136574,202.446878 C348.17407,205.012549 318.960736,226.83319 302.348123,264.283241 C265.987891,346.250635 244.674509,353.441497 188.288435,301.037903 C151.760003,267.089429 117.064532,281.981882 83.3301141,346.693395 C82.9471628,347.427997 82.041207,347.713066 81.3066052,347.330114 C80.5720034,346.947163 80.2869345,346.041207 80.6698859,345.306605 C115.198564,279.071492 152.042816,263.256711 190.330732,298.840399 C245.055313,349.69985 264.013218,343.303696 299.605823,263.066774 C316.653801,224.635274 346.811076,202.109565 380.90377,199.455924 C413.364037,196.929345 444.949493,212.976664 464.315169,242.773546 L464.898256,243.680685 C477.508847,263.518522 490.766098,268.603977 505.220071,259.477235 C519.844971,250.242562 535.72553,226.554889 552.705309,188.463299 L553.725,186.162 L554.17648,184.91516 C569.574674,142.770053 592.093724,117.985216 621.752797,110.754229 L622.662958,110.538356 Z" id="路径-283" fill="#000000" fill-rule="nonzero"></path>
                        <path d="M630.5,104 C634.642136,104 638,107.357864 638,111.5 C638,115.642136 634.642136,119 630.5,119 C626.357864,119 623,115.642136 623,111.5 C623,107.357864 626.357864,104 630.5,104 Z M630.5,107 C628.014719,107 626,109.014719 626,111.5 C626,113.985281 628.014719,116 630.5,116 C632.985281,116 635,113.985281 635,111.5 C635,109.014719 632.985281,107 630.5,107 Z" id="椭圆形" fill="#010101" fill-rule="nonzero"></path>
                        <path d="M706,0 L706,414 L30,414 L30,0 L706,0 Z M703,3 L33,3 L33,411 L703,411 L703,3 Z" id="矩形备份-7" fill="#000000" fill-rule="nonzero"></path>
                    </g>
                    <g id="编组-5" transform="translate(1179.000000, 724.147180)">
                        <path d="M59.5654435,45.1627581 C26.0193904,47.0056822 11.5506943,66.334895 16.1593552,103.150396 L190.51571,103.142114 C191.053724,63.0069738 173.793,44.44604 138.733537,47.4593127 C136.658658,20.3312784 123.399204,7.02976292 98.9551755,7.55476629 C78.9589286,8.25137444 65.8290179,20.7873717 59.5654435,45.1627581 Z" id="路径-289" fill="#A0FFE7"></path>
                        <path d="M85.2043623,0.5011616 C111.961661,0.35473882 126.451954,14.1668524 127.29729,38.9764418 L127.318,39.712 L127.847816,39.6822436 C161.80885,37.9841048 179.213601,57.1584763 179.658949,96.5464176 L179.667319,97.7710456 C179.669198,98.5547762 179.069757,99.1993041 178.304076,99.2684994 L178.167319,99.2746492 L143.000912,99.2746492 C142.172485,99.2746492 141.500912,98.6030764 141.500912,97.7746492 C141.500912,96.9949531 142.0958,96.3542006 142.856452,96.2815158 L143.000912,96.2746492 L176.654,96.274 L176.641644,95.4403735 C175.903081,58.0578315 159.476201,40.7096478 126.957884,42.7368822 L125.947031,42.8057572 C125.077442,42.8699942 124.336527,42.1817915 124.336527,41.3098332 C124.336527,16.6879217 111.132307,3.35932218 85.2207788,3.50111668 C67.602586,3.59752794 55.8658696,15.3843476 49.8857532,39.3040022 C49.7188114,39.971747 49.1188394,40.4401871 48.4305424,40.4401871 C14.62389,40.4401871 0.0188556838,58.4705045 4.18789192,95.3010076 L4.302,96.274 L41.6226754,96.2746492 C42.4023715,96.2746492 43.0431241,96.8695373 43.1158088,97.6301892 L43.1226754,97.7746492 C43.1226754,98.5543453 42.5277873,99.1950979 41.7671354,99.2677827 L41.6226754,99.2746492 L2.97935054,99.2746492 C2.22638374,99.2746492 1.59010191,98.716428 1.49210787,97.9698651 C-3.66364459,58.6910129 11.4052222,38.2660083 46.2711607,37.4647197 L47.264,37.447 L47.3601124,37.0832574 C53.706836,13.1831482 66.1686001,0.856841123 84.6314336,0.508127146 L85.2043623,0.5011616 Z" id="路径-284" fill="#000000" fill-rule="nonzero"></path>
                        <path d="M43.9015801,57.139164 C44.6812762,57.139164 45.3220288,57.7340521 45.3947135,58.494704 L45.4015801,58.639164 L45.401,79.872 L60.3918397,79.8729741 C61.1715358,79.8729741 61.8122884,80.4678622 61.8849731,81.2285141 L61.8918397,81.3729741 L61.8918397,136.679959 C61.8918397,137.508387 61.2202668,138.179959 60.3918397,138.179959 C59.6121436,138.179959 58.971391,137.585071 58.8987063,136.824419 L58.8918397,136.679959 L58.891,82.872 L43.9015801,82.8729741 C43.121884,82.8729741 42.4811314,82.278086 42.4084467,81.5174341 L42.4015801,81.3729741 L42.4015801,58.639164 C42.4015801,57.8107369 43.073153,57.139164 43.9015801,57.139164 Z" id="路径-285" fill="#000000" fill-rule="nonzero"></path>
                        <path d="M60.3243435,136.539815 C63.638052,136.539815 66.3243435,139.226107 66.3243435,142.539815 C66.3243435,145.853524 63.638052,148.539815 60.3243435,148.539815 C57.010635,148.539815 54.3243435,145.853524 54.3243435,142.539815 C54.3243435,139.226107 57.010635,136.539815 60.3243435,136.539815 Z M60.3243435,139.539815 C58.6674892,139.539815 57.3243435,140.882961 57.3243435,142.539815 C57.3243435,144.196669 58.6674892,145.539815 60.3243435,145.539815 C61.9811977,145.539815 63.3243435,144.196669 63.3243435,142.539815 C63.3243435,140.882961 61.9811977,139.539815 60.3243435,139.539815 Z" id="椭圆形" fill="#000000" fill-rule="nonzero"></path>
                        <path d="M85.3243435,100.539815 C88.638052,100.539815 91.3243435,103.226107 91.3243435,106.539815 C91.3243435,109.853524 88.638052,112.539815 85.3243435,112.539815 C82.010635,112.539815 79.3243435,109.853524 79.3243435,106.539815 C79.3243435,103.226107 82.010635,100.539815 85.3243435,100.539815 Z M85.3243435,103.539815 C83.6674892,103.539815 82.3243435,104.882961 82.3243435,106.539815 C82.3243435,108.196669 83.6674892,109.539815 85.3243435,109.539815 C86.9811977,109.539815 88.3243435,108.196669 88.3243435,106.539815 C88.3243435,104.882961 86.9811977,103.539815 85.3243435,103.539815 Z" id="椭圆形备份-12" fill="#000000" fill-rule="nonzero"></path>
                        <path d="M112.324343,135.539815 C115.638052,135.539815 118.324343,138.226107 118.324343,141.539815 C118.324343,144.853524 115.638052,147.539815 112.324343,147.539815 C109.010635,147.539815 106.324343,144.853524 106.324343,141.539815 C106.324343,138.226107 109.010635,135.539815 112.324343,135.539815 Z M112.324343,138.539815 C110.667489,138.539815 109.324343,139.882961 109.324343,141.539815 C109.324343,143.196669 110.667489,144.539815 112.324343,144.539815 C113.981198,144.539815 115.324343,143.196669 115.324343,141.539815 C115.324343,139.882961 113.981198,138.539815 112.324343,138.539815 Z" id="椭圆形备份-13" fill="#000000" fill-rule="nonzero"></path>
                        <path d="M132.324343,124.539815 C135.638052,124.539815 138.324343,127.226107 138.324343,130.539815 C138.324343,133.853524 135.638052,136.539815 132.324343,136.539815 C129.010635,136.539815 126.324343,133.853524 126.324343,130.539815 C126.324343,127.226107 129.010635,124.539815 132.324343,124.539815 Z M132.324343,127.539815 C130.667489,127.539815 129.324343,128.882961 129.324343,130.539815 C129.324343,132.196669 130.667489,133.539815 132.324343,133.539815 C133.981198,133.539815 135.324343,132.196669 135.324343,130.539815 C135.324343,128.882961 133.981198,127.539815 132.324343,127.539815 Z" id="椭圆形备份-14" fill="#000000" fill-rule="nonzero"></path>
                        <path d="M85.330184,60.4739342 C86.1098801,60.4739342 86.7506327,61.0688223 86.8233174,61.8294742 L86.830184,61.9739342 L86.830184,100.988595 C86.830184,101.817022 86.1586111,102.488595 85.330184,102.488595 C84.5504879,102.488595 83.9097353,101.893707 83.8370506,101.133055 L83.830184,100.988595 L83.830184,61.9739342 C83.830184,61.1455071 84.5017569,60.4739342 85.330184,60.4739342 Z" id="路径-286" fill="#000000" fill-rule="nonzero"></path>
                        <path d="M112.399913,63.4200065 C113.179609,63.4200065 113.820361,64.0148946 113.893046,64.7755465 L113.899913,64.9200065 L113.899913,136.679959 C113.899913,137.508387 113.22834,138.179959 112.399913,138.179959 C111.620216,138.179959 110.979464,137.585071 110.906779,136.824419 L110.899913,136.679959 L110.899913,64.9200065 C110.899913,64.0915794 111.571485,63.4200065 112.399913,63.4200065 Z" id="路径-287" fill="#000000" fill-rule="nonzero"></path>
                        <path d="M141.150652,54.0711754 C141.930348,54.0711754 142.571101,54.6660634 142.643786,55.4267153 L142.650652,55.5711754 L142.650652,79.0594324 C142.650652,79.2804263 142.601831,79.4979866 142.508495,79.6968218 L142.430214,79.8421982 L133.043,95.186 L133.043645,125.984311 C133.043645,126.764008 132.448757,127.40476 131.688105,127.477445 L131.543645,127.484311 C130.763949,127.484311 130.123197,126.889423 130.050512,126.128771 L130.043645,125.984311 L130.043645,94.7636903 C130.043645,94.5426964 130.092466,94.3251361 130.185803,94.1263009 L130.264084,93.9809245 L139.65,78.637 L139.650652,55.5711754 C139.650652,54.7914792 140.24554,54.1507267 141.006192,54.0780419 L141.150652,54.0711754 Z" id="路径-288" fill="#000000" fill-rule="nonzero"></path>
                    </g>
                    <g id="编组-10" transform="translate(1045.000000, 897.147180)">
                        <g id="椭圆形-+-椭圆形-+-椭圆形-+-椭圆形-+-椭圆形-蒙版" transform="translate(19.000000, 0.000000)">
                            <mask id="mask-6" fill="white">
                                <use xlink:href="#path-5"></use>
                            </mask>
                            <use id="蒙版" fill="#A0FFE7" xlink:href="#path-5"></use>
                            <circle id="椭圆形" fill="#57E3BF" mask="url(#mask-6)" cx="54" cy="24" r="8"></circle>
                            <circle id="椭圆形" fill="#57E3BF" mask="url(#mask-6)" cx="14.5" cy="45.5" r="4.5"></circle>
                            <circle id="椭圆形" fill="#57E3BF" mask="url(#mask-6)" cx="50" cy="75" r="8"></circle>
                            <circle id="椭圆形" fill="#57E3BF" mask="url(#mask-6)" cx="84.5" cy="53.5" r="3.5"></circle>
                            <circle id="椭圆形" fill="#57E3BF" mask="url(#mask-6)" cx="81" cy="105" r="17"></circle>
                        </g>
                        <path d="M92.5,0 C124.256373,0 150,25.7436269 150,57.5 C150,89.2563731 124.256373,115 92.5,115 C60.7436269,115 35,89.2563731 35,57.5 C35,25.7436269 60.7436269,0 92.5,0 Z M92.5,3 C62.4004811,3 38,27.4004811 38,57.5 C38,87.5995189 62.4004811,112 92.5,112 C122.599519,112 147,87.5995189 147,57.5 C147,27.4004811 122.599519,3 92.5,3 Z" id="椭圆形备份-15" fill="#000000" fill-rule="nonzero"></path>
                        <path d="M150.379569,39.5 C163.397741,39.5 172.522422,40.9664844 177.837739,43.9899537 C183.480135,47.1994719 184.919891,52.2325244 182.079894,58.4927512 L181.92918,58.8176473 L181.828292,58.9974062 C163.564704,86.8614309 122.059289,101.571148 57.411421,103.338409 L55.4649182,103.38772 C23.9532166,104.12166 6.21534852,101.350068 1.69097804,94.5406663 C-3.28621612,87.0497427 6.94325698,76.7078262 31.5284118,62.7551821 C32.248897,62.3462901 33.164438,62.5988863 33.57333,63.3193714 C33.982222,64.0398566 33.7296258,64.9553976 33.0091407,65.3642896 C10.1224979,78.3529888 0.799681265,87.7782828 4.18970541,92.880437 C7.94021915,98.5251458 25.8519135,101.200022 57.3294414,100.339529 C120.456396,98.6138456 160.909265,84.4836236 178.78447,58.1544214 L179.261,57.438 L179.352476,57.2436516 C181.52666,52.4574795 180.633291,49.1424911 176.600203,46.7406267 L176.35445,46.5976061 C171.605036,43.8960355 162.918699,42.5 150.379569,42.5 C149.551141,42.5 148.879569,41.8284271 148.879569,41 C148.879569,40.1715729 149.551141,39.5 150.379569,39.5 Z" id="路径-290" fill="#060606" fill-rule="nonzero"></path>
                    </g>
                    <g id="编组-12" transform="translate(329.000000, 822.147180)">
                        <path d="M13.9723558,13.9723558 C20.8166213,14.9103238 26.9832032,15.3793077 32.4721013,15.3793077 C37.9609994,15.3793077 45.1369656,13.5862052 54,10 C49.8025289,18.8018613 47.7037934,25.6721946 47.7037934,30.6109998 C47.7037934,35.549805 48.4396777,41.9832872 49.9114463,49.9114463 C43.0417326,47.7388973 36.9586406,46.6526228 31.6621704,46.6526228 C26.3657001,46.6526228 19.1449767,49.1017485 10,54 C14.2869855,44.0512692 16.4304783,36.5249128 16.4304783,31.4209307 C16.4304783,26.3169487 15.6111041,20.500757 13.9723558,13.9723558 Z" id="矩形" fill="#A0FFE7" transform="translate(32.000000, 32.000000) rotate(-45.000000) translate(-32.000000, -32.000000) "></path>
                        <path d="M62,10 C57.8025289,18.8018613 55.7037934,25.6721946 55.7037934,30.6109998 C55.7037934,35.549805 56.4396777,41.9832872 57.9114463,49.9114463 C51.0417326,47.7388973 44.9586406,46.6526228 39.6621704,46.6526228 C34.3657001,46.6526228 27.1449767,49.1017485 18,54 L18.5247092,52.7690252 C22.4618886,43.4282784 24.4304783,36.3122469 24.4304783,31.4209307 C24.4304783,26.3169487 23.6111041,20.500757 21.9723558,13.9723558 C28.8166213,14.9103238 34.9832032,15.3793077 40.4721013,15.3793077 C45.9609994,15.3793077 53.1369656,13.5862052 62,10 Z M56.4,15.271 L55.9201917,15.430602 C49.917492,17.391062 44.7783349,18.3793077 40.4721013,18.3793077 C36.2467682,18.3793077 31.6462388,18.1097628 26.6685337,17.571871 L25.853,17.481 L25.9954326,18.1763907 C26.897493,22.713557 27.3756869,26.9022823 27.4260354,30.7461755 L27.4304783,31.4209307 C27.4304783,35.3781374 26.3150985,40.4593466 24.1000281,46.7244658 L23.69,47.86 L24.0684992,47.6941581 C30.0383586,45.0879618 35.0922783,43.7335584 39.2835231,43.6561421 L39.6621704,43.6526228 C43.8849469,43.6526228 48.5292843,44.2934567 53.6012735,45.5669711 L54.138,45.704 L54.0321925,45.0360625 C53.1863227,39.6087418 52.7432413,34.9779035 52.7063115,31.1307546 L52.7037934,30.6109998 C52.7037934,26.7306893 53.8144128,21.9621395 56.015172,16.2534903 L56.4,15.271 Z" id="矩形备份-17" fill="#000000" fill-rule="nonzero" transform="translate(40.000000, 32.000000) rotate(-45.000000) translate(-40.000000, -32.000000) "></path>
                    </g>
                    <g id="编组-7" transform="translate(1194.000000, 569.147180)">
                        <rect id="矩形" fill="#FFDF80" x="0" y="64" width="81" height="26"></rect>
                        <rect id="矩形" fill="#A0FFE7" x="51" y="0" width="82" height="28"></rect>
                        <rect id="矩形" fill="#FF6A6A" x="76" y="112" width="80" height="21"></rect>
                        <path d="M88,65 L88,95 L6,95 L6,65 L88,65 Z M85,68 L9,68 L9,92 L85,92 L85,68 Z" id="矩形" fill="#020202" fill-rule="nonzero"></path>
                        <path d="M164,115 L164,140 L82,140 L82,115 L164,115 Z M161,118 L85,118 L85,137 L161,137 L161,118 Z" id="矩形备份-18" fill="#020202" fill-rule="nonzero"></path>
                        <path d="M139,5 L139,33 L55,33 L55,5 L139,5 Z M136,8 L58,8 L58,30 L136,30 L136,8 Z" id="矩形备份-19" fill="#020202" fill-rule="nonzero"></path>
                    </g>
                    <g id="编组-6" transform="translate(286.000000, 638.147180)">
                        <rect id="矩形备份-20" fill="#A0FFE7" x="71" y="50" width="82" height="28"></rect>
                        <path d="M159,55 L159,83 L75,83 L75,55 L159,55 Z M156,58 L78,58 L78,80 L156,80 L156,58 Z" id="矩形备份-21" fill="#020202" fill-rule="nonzero"></path>
                        <rect id="矩形备份-22" fill="#FFDF80" x="0" y="0" width="81" height="26"></rect>
                        <path d="M88,1 L88,31 L6,31 L6,1 L88,1 Z M85,4 L9,4 L9,28 L85,28 L85,4 Z" id="矩形备份-23" fill="#020202" fill-rule="nonzero"></path>
                    </g>
                    <g id="编组-11" transform="translate(286.000000, 960.000000)">
                        <path d="M157.738986,11.1876917 C158.187612,10.4912531 159.11587,10.2903609 159.812308,10.7389864 C160.46778,11.1612222 160.68429,12.0083225 160.333472,12.6871457 L160.261014,12.8123083 L110.362921,90.273259 L53.378,46.857 L12.2087736,102.888182 C11.7470991,103.516499 10.888306,103.680603 10.2322972,103.288778 L10.1118184,103.208774 C9.48350107,102.747099 9.31939699,101.888306 9.71122206,101.232297 L9.79122645,101.111818 L52.7689889,42.6210946 L109.598,85.919 L157.738986,11.1876917 Z" id="路径-291" fill="#020202" fill-rule="nonzero"></path>
                        <circle id="椭圆形" fill="#FF6A6A" cx="7.5" cy="107.5" r="7.5"></circle>
                        <circle id="椭圆形备份-16" fill="#FF6A6A" cx="53.5" cy="43.5" r="7.5"></circle>
                        <circle id="椭圆形备份-18" fill="#FF6A6A" cx="109.5" cy="87.5" r="7.5"></circle>
                        <circle id="椭圆形备份-17" fill="#FF6A6A" cx="162.5" cy="7.5" r="7.5"></circle>
                        <path d="M9.5,99 C13.0898509,99 16,101.910149 16,105.5 C16,109.089851 13.0898509,112 9.5,112 C5.91014913,112 3,109.089851 3,105.5 C3,101.910149 5.91014913,99 9.5,99 Z M9.5,102 C7.56700338,102 6,103.567003 6,105.5 C6,107.432997 7.56700338,109 9.5,109 C11.4329966,109 13,107.432997 13,105.5 C13,103.567003 11.4329966,102 9.5,102 Z" id="椭圆形备份-19" fill="#020202" fill-rule="nonzero"></path>
                        <path d="M53.5,39 C57.0898509,39 60,41.9101491 60,45.5 C60,49.0898509 57.0898509,52 53.5,52 C49.9101491,52 47,49.0898509 47,45.5 C47,41.9101491 49.9101491,39 53.5,39 Z M53.5,42 C51.5670034,42 50,43.5670034 50,45.5 C50,47.4329966 51.5670034,49 53.5,49 C55.4329966,49 57,47.4329966 57,45.5 C57,43.5670034 55.4329966,42 53.5,42 Z" id="椭圆形备份-20" fill="#020202" fill-rule="nonzero"></path>
                        <path d="M108.5,79 C112.089851,79 115,81.9101491 115,85.5 C115,89.0898509 112.089851,92 108.5,92 C104.910149,92 102,89.0898509 102,85.5 C102,81.9101491 104.910149,79 108.5,79 Z M108.5,82 C106.567003,82 105,83.5670034 105,85.5 C105,87.4329966 106.567003,89 108.5,89 C110.432997,89 112,87.4329966 112,85.5 C112,83.5670034 110.432997,82 108.5,82 Z" id="椭圆形备份-21" fill="#020202" fill-rule="nonzero"></path>
                        <path d="M159.5,2 C163.089851,2 166,4.91014913 166,8.5 C166,12.0898509 163.089851,15 159.5,15 C155.910149,15 153,12.0898509 153,8.5 C153,4.91014913 155.910149,2 159.5,2 Z M159.5,5 C157.567003,5 156,6.56700338 156,8.5 C156,10.4329966 157.567003,12 159.5,12 C161.432997,12 163,10.4329966 163,8.5 C163,6.56700338 161.432997,5 159.5,5 Z" id="椭圆形备份-22" fill="#020202" fill-rule="nonzero"></path>
                    </g>
                    <path d="M1176.41028,390.348272 C1212.08701,373.355708 1244.66047,372.647478 1271.03943,385.404656 C1293.00316,396.026574 1308.86242,415.674817 1312.95263,435.07279 C1321.35317,474.912578 1295.8813,512.625244 1221.65499,558.558077 L1219.39077,559.952507 C1164.75399,593.440878 1143.82401,626.302991 1156.0184,658.617586 C1156.31089,659.392662 1155.91967,660.258093 1155.1446,660.550579 C1154.36952,660.843066 1153.50409,660.45185 1153.2116,659.676773 C1140.50487,626.004494 1161.67664,592.226503 1216.16178,558.419203 L1217.82304,557.394731 C1292.8358,511.417366 1318.18129,474.410284 1310.01718,435.691754 C1306.12211,417.219259 1290.87548,398.330007 1269.73332,388.105409 C1244.45486,375.88045 1213.21037,376.43204 1178.74567,392.563152 L1177.7003,393.056746 C1125.96819,417.696369 1076.12382,417.696369 1028.31239,393.035623 C1027.57613,392.655867 1027.28713,391.751158 1027.66689,391.014899 C1028.04664,390.278641 1028.95135,389.989638 1029.68761,390.369394 C1076.18026,414.349926 1124.53205,414.589731 1174.88385,391.068315 L1176.41028,390.348272 Z" id="路径-292" fill="#000000" fill-rule="nonzero"></path>
                    <g id="编组-8" transform="translate(1103.000000, 241.147180)">
                        <path d="M115,21.8998701 C115.779696,21.8998701 116.420449,22.4947582 116.493133,23.2554101 L116.5,23.3998701 L116.5,112.39987 C116.5,113.179566 115.905112,113.820319 115.14446,113.893004 L115,113.89987 L26,113.89987 C25.2203039,113.89987 24.5795513,113.304982 24.5068666,112.54433 L24.5,112.39987 L24.5,31.9423975 C24.5,31.1139703 25.1715729,30.4423975 26,30.4423975 C26.7796961,30.4423975 27.4204487,31.0372855 27.4931334,31.7979375 L27.5,31.9423975 L27.5,110.899 L113.5,110.899 L113.5,24.899 L110.232143,24.8998701 C109.452447,24.8998701 108.811694,24.3049821 108.739009,23.5443302 L108.732143,23.3998701 C108.732143,22.620174 109.327031,21.9794215 110.087683,21.9067367 L110.232143,21.8998701 L115,21.8998701 Z" id="路径-293" fill="#000000" fill-rule="nonzero"></path>
                        <rect id="矩形" fill="#A0FFE7" x="16" y="32" width="92" height="73"></rect>
                        <rect id="矩形" fill="#FFDF80" x="0" y="16" width="92" height="76"></rect>
                        <circle id="椭圆形" fill="#FF6A6A" cx="86" cy="16" r="16"></circle>
                        <path d="M94.5,3 C104.164983,3 112,10.8350169 112,20.5 C112,30.1649831 104.164983,38 94.5,38 C84.8350169,38 77,30.1649831 77,20.5 C77,10.8350169 84.8350169,3 94.5,3 Z M94.5,6 C86.4918711,6 80,12.4918711 80,20.5 C80,28.5081289 86.4918711,35 94.5,35 C102.508129,35 109,28.5081289 109,20.5 C109,12.4918711 102.508129,6 94.5,6 Z" id="椭圆形" fill="#010101" fill-rule="nonzero"></path>
                        <path d="M6,26.6538867 C6.77969612,26.6538867 7.42044868,27.2487748 7.49313342,28.0094267 L7.5,28.1538867 L7.5,96.545 L100.5,96.545 L100.5,34.7883117 C100.5,34.0086156 101.094888,33.3678631 101.85554,33.2951783 L102,33.2883117 C102.779696,33.2883117 103.420449,33.8831998 103.493133,34.6438517 L103.5,34.7883117 L103.5,98.0456841 C103.5,98.8253802 102.905112,99.4661328 102.14446,99.5388175 L102,99.5456841 L6,99.5456841 C5.22030388,99.5456841 4.57955132,98.950796 4.50686658,98.1901441 L4.5,98.0456841 L4.5,28.1538867 C4.5,27.3254596 5.17157288,26.6538867 6,26.6538867 Z" id="路径-294" fill="#000000" fill-rule="nonzero"></path>
                    </g>
                    <g id="编组-15" transform="translate(445.000000, 1006.147180)">
                        <path d="M33,34.5 C33.7796961,34.5 34.4204487,35.0948881 34.4931334,35.85554 L34.5,36 L34.5,58.5 L106,58.5 C106.779696,58.5 107.420449,59.0948881 107.493133,59.85554 L107.5,60 C107.5,60.7796961 106.905112,61.4204487 106.14446,61.4931334 L106,61.5 L31.5,61.5 L31.5,36 C31.5,35.1715729 32.1715729,34.5 33,34.5 Z" id="路径-296" fill="#000000" fill-rule="nonzero"></path>
                        <rect id="矩形" fill="#A0FFE7" x="0" y="6" width="65" height="32"></rect>
                        <path d="M69,0 L69,33 L3,33 L3,0 L69,0 Z M66,3 L6,3 L6,30 L66,30 L66,3 Z" id="矩形" fill="#000000" fill-rule="nonzero"></path>
                        <path d="M175,27 L175,60 L109,60 L109,27 L175,27 Z M172,30 L112,30 L112,57 L172,57 L172,30 Z" id="矩形备份" fill="#000000" fill-rule="nonzero"></path>
                        <rect id="矩形" fill="#FF6A6A" x="103" y="33" width="65" height="36"></rect>
                    </g>
                    <g id="编组-13" transform="translate(946.500000, 331.647180) rotate(-47.000000) translate(-946.500000, -331.647180) translate(822.000000, 266.147180)">
                        <rect id="矩形" fill="#FFDF80" x="104.620023" y="32.8360816" width="35" height="98" rx="8"></rect>
                        <path d="M136.62001,32.8247281 C141.038288,32.8247281 144.62001,36.4064501 144.62001,40.8247281 L144.62001,122.824728 C144.62001,127.243006 141.038288,130.824728 136.62001,130.824728 L117.62001,130.824728 C113.201732,130.824728 109.62001,127.243006 109.62001,122.824728 L109.62001,40.8247281 C109.62001,36.4064501 113.201732,32.8247281 117.62001,32.8247281 L136.62001,32.8247281 Z M136.62001,35.8247281 L117.62001,35.8247281 C114.931256,35.8247281 112.738192,37.9470348 112.62463,40.6078385 L112.62001,40.8247281 L112.62001,122.824728 C112.62001,125.513483 114.742317,127.706546 117.403121,127.820109 L117.62001,127.824728 L136.62001,127.824728 C139.308765,127.824728 141.501828,125.702421 141.615391,123.041618 L141.62001,122.824728 L141.62001,40.8247281 C141.62001,38.1359734 139.497704,35.94291 136.8369,35.8293476 L136.62001,35.8247281 Z" id="矩形备份-25" fill="#000000" fill-rule="nonzero"></path>
                        <rect id="矩形" fill="#A0FFE7" x="0.807949097" y="53.6014034" width="97" height="46" rx="1"></rect>
                        <rect id="矩形备份-2" fill="#A0FFE7" x="147.208026" y="53.4689706" width="97" height="46" rx="1"></rect>
                        <path d="M121.972427,32.8362492 C139.369397,32.8362492 153.472427,18.5420858 153.472427,0.909341712 C131.123673,1.18763648 109.181544,0.64953552 90.4724269,0.909341712 C90.4724269,18.5420858 104.575457,32.8362492 121.972427,32.8362492 Z" id="椭圆形" fill="#FF6A6A"></path>
                        <path d="M95.6805881,4.49752473 C114.389705,4.23771853 136.331834,4.77581949 158.680588,4.49752473 C158.680588,22.1302688 144.577558,36.4244322 127.180588,36.4244322 C109.783618,36.4244322 95.6805881,22.1302688 95.6805881,4.49752473 Z M108.99515,7.42364802 C106.814915,7.42021569 104.881888,7.42199312 103.061283,7.42996417 L98.828,7.459 L98.8649285,7.80622099 C100.465365,22.0757538 112.292432,33.1833366 126.709556,33.4205595 L127.180588,33.4244322 C141.810426,33.4244322 153.878415,22.2308575 155.496248,7.80622099 L155.524,7.532 L152.411664,7.55804388 C148.55926,7.58359755 144.602965,7.58812638 139.817067,7.5744247 L108.99515,7.42364802 Z" id="椭圆形备份-23" fill="#000000" fill-rule="nonzero"></path>
                        <path d="M102.576364,49.3886983 C103.030361,49.3886983 103.398398,49.7553465 103.398398,50.2076299 L103.398398,94.4299398 C103.398398,94.8822233 103.030361,95.2488715 102.576364,95.2488715 L87.5269287,95.2502656 C87.3566448,95.338703 87.1630429,95.3886983 86.9577197,95.3886983 C86.7523826,95.3886983 86.5587683,95.3386962 86.3884761,95.2502477 L76.0184541,95.2502656 C75.8481703,95.338703 75.6545683,95.3886983 75.4492451,95.3886983 C75.243908,95.3886983 75.0502937,95.3386962 74.8800016,95.2502477 L64.5099795,95.2502656 C64.3396957,95.338703 64.1460937,95.3886983 63.9407705,95.3886983 C63.7354334,95.3886983 63.5418192,95.3386962 63.371527,95.2502477 L53.0015049,95.2502656 C52.8312211,95.338703 52.6376192,95.3886983 52.432296,95.3886983 C52.2269589,95.3886983 52.0333446,95.3386962 51.8630524,95.2502477 L41.4930303,95.2502656 C41.3227465,95.338703 41.1291446,95.3886983 40.9238214,95.3886983 C40.7184843,95.3886983 40.52487,95.3386962 40.3545778,95.2502477 L29.9845558,95.2502656 C29.814272,95.338703 29.62067,95.3886983 29.4153468,95.3886983 C29.2100097,95.3886983 29.0163954,95.3386962 28.8461033,95.2502477 L18.4760812,95.2502656 C18.3057974,95.338703 18.1121954,95.3886983 17.9068722,95.3886983 C17.7015351,95.3886983 17.5079209,95.3386962 17.3376287,95.2502477 L7.22043157,95.2488715 C6.76643478,95.2488715 6.39839767,94.8822233 6.39839767,94.4299398 L6.39839767,50.2076299 C6.39839767,49.7553465 6.76643478,49.3886983 7.22043157,49.3886983 L102.576364,49.3886983 Z M39.6903977,85.0116983 L30.6473977,85.0116983 L30.6473977,92.7916983 L39.6903977,92.7916983 L39.6903977,85.0116983 Z M51.1983977,85.0116983 L42.1563977,85.0116983 L42.1563977,92.7916983 L51.1983977,92.7916983 L51.1983977,85.0116983 Z M62.7073977,85.0116983 L53.6643977,85.0116983 L53.6643977,92.7916983 L62.7073977,92.7916983 L62.7073977,85.0116983 Z M74.2153977,85.0116983 L65.1733977,85.0116983 L65.1733977,92.7916983 L74.2153977,92.7916983 L74.2153977,85.0116983 Z M28.1813977,85.0116983 L19.1393977,85.0116983 L19.1393977,92.7916983 L28.1813977,92.7916983 L28.1813977,85.0116983 Z M85.7243977,85.0116983 L76.6813977,85.0116983 L76.6813977,92.7916983 L85.7243977,92.7916983 L85.7243977,85.0116983 Z M16.6733977,85.0116983 L8.86439767,85.0116983 L8.86449936,92.7920765 L16.6733977,92.7916983 L16.6733977,85.0116983 Z M100.931398,85.0116983 L88.1903977,85.0116983 L88.1903977,92.7916983 L100.932296,92.7920765 L100.931398,85.0116983 Z M16.6733977,73.5466983 L8.86439767,73.5466983 L8.86439767,82.5546983 L16.6733977,82.5546983 L16.6733977,73.5466983 Z M39.6903977,73.5466983 L30.6473977,73.5466983 L30.6473977,82.5546983 L39.6903977,82.5546983 L39.6903977,73.5466983 Z M51.1983977,73.5466983 L42.1563977,73.5466983 L42.1563977,82.5546983 L51.1983977,82.5546983 L51.1983977,73.5466983 Z M62.7073977,73.5466983 L53.6643977,73.5466983 L53.6643977,82.5546983 L62.7073977,82.5546983 L62.7073977,73.5466983 Z M28.1813977,73.5466983 L19.1393977,73.5466983 L19.1393977,82.5546983 L28.1813977,82.5546983 L28.1813977,73.5466983 Z M85.7243977,73.5466983 L76.6813977,73.5466983 L76.6813977,82.5546983 L85.7243977,82.5546983 L85.7243977,73.5466983 Z M74.2153977,73.5466983 L65.1733977,73.5466983 L65.1733977,82.5546983 L74.2153977,82.5546983 L74.2153977,73.5466983 Z M100.931398,73.5466983 L88.1903977,73.5466983 L88.1903977,82.5546983 L100.931398,82.5546983 L100.931398,73.5466983 Z M16.6733977,62.0816983 L8.86439767,62.0816983 L8.86439767,71.0896983 L16.6733977,71.0896983 L16.6733977,62.0816983 Z M39.6903977,62.0816983 L30.6473977,62.0816983 L30.6473977,71.0896983 L39.6903977,71.0896983 L39.6903977,62.0816983 Z M51.1983977,62.0816983 L42.1563977,62.0816983 L42.1563977,71.0896983 L51.1983977,71.0896983 L51.1983977,62.0816983 Z M62.7073977,62.0816983 L53.6643977,62.0816983 L53.6643977,71.0896983 L62.7073977,71.0896983 L62.7073977,62.0816983 Z M74.2153977,62.0816983 L65.1733977,62.0816983 L65.1733977,71.0896983 L74.2153977,71.0896983 L74.2153977,62.0816983 Z M28.1813977,62.0816983 L19.1393977,62.0816983 L19.1393977,71.0896983 L28.1813977,71.0896983 L28.1813977,62.0816983 Z M85.7243977,62.0816983 L76.6813977,62.0816983 L76.6813977,71.0896983 L85.7243977,71.0896983 L85.7243977,62.0816983 Z M100.931398,62.0816983 L88.1903977,62.0816983 L88.1903977,71.0896983 L100.931398,71.0896983 L100.931398,62.0816983 Z M16.6733977,51.8446983 L8.86449936,51.8454933 L8.86439767,59.6246983 L16.6733977,59.6246983 L16.6733977,51.8446983 Z M39.6903977,51.8446983 L30.6473977,51.8446983 L30.6473977,59.6246983 L39.6903977,59.6246983 L39.6903977,51.8446983 Z M51.1983977,51.8446983 L42.1563977,51.8446983 L42.1563977,59.6246983 L51.1983977,59.6246983 L51.1983977,51.8446983 Z M62.7073977,51.8446983 L53.6643977,51.8446983 L53.6643977,59.6246983 L62.7073977,59.6246983 L62.7073977,51.8446983 Z M74.2153977,51.8446983 L65.1733977,51.8446983 L65.1733977,59.6246983 L74.2153977,59.6246983 L74.2153977,51.8446983 Z M28.1813977,51.8446983 L19.1393977,51.8446983 L19.1393977,59.6246983 L28.1813977,59.6246983 L28.1813977,51.8446983 Z M85.7243977,51.8446983 L76.6813977,51.8446983 L76.6813977,59.6246983 L85.7243977,59.6246983 L85.7243977,51.8446983 Z M100.932296,51.8454933 L88.1903977,51.8446983 L88.1903977,59.6246983 L100.931398,59.6246983 L100.932296,51.8454933 Z" id="形状结合" fill="#000000" fill-rule="nonzero"></path>
                        <path d="M247.77281,47.6589944 C248.226807,47.6589944 248.594844,48.0256426 248.594844,48.4779261 L248.594844,92.700236 C248.594844,93.1525194 248.226807,93.5191676 247.77281,93.5191676 L232.723375,93.5205618 C232.553092,93.6089992 232.35949,93.6589944 232.154166,93.6589944 C231.948829,93.6589944 231.755215,93.6089924 231.584923,93.5205438 L221.214901,93.5205618 C221.044617,93.6089992 220.851015,93.6589944 220.645692,93.6589944 C220.440355,93.6589944 220.24674,93.6089924 220.076448,93.5205438 L209.706426,93.5205618 C209.536142,93.6089992 209.34254,93.6589944 209.137217,93.6589944 C208.93188,93.6589944 208.738266,93.6089924 208.567974,93.5205438 L198.197952,93.5205618 C198.027668,93.6089992 197.834066,93.6589944 197.628743,93.6589944 C197.423406,93.6589944 197.229791,93.6089924 197.059499,93.5205438 L186.689477,93.5205618 C186.519193,93.6089992 186.325591,93.6589944 186.120268,93.6589944 C185.914931,93.6589944 185.721317,93.6089924 185.551025,93.5205438 L175.181002,93.5205618 C175.010719,93.6089992 174.817117,93.6589944 174.611793,93.6589944 C174.406456,93.6589944 174.212842,93.6089924 174.04255,93.5205438 L163.672528,93.5205618 C163.502244,93.6089992 163.308642,93.6589944 163.103319,93.6589944 C162.897982,93.6589944 162.704368,93.6089924 162.534075,93.5205438 L152.416878,93.5191676 C151.962881,93.5191676 151.594844,93.1525194 151.594844,92.700236 L151.594844,48.4779261 C151.594844,48.0256426 151.962881,47.6589944 152.416878,47.6589944 L247.77281,47.6589944 Z M184.886844,83.2819944 L175.844844,83.2819944 L175.844844,91.0619944 L184.886844,91.0619944 L184.886844,83.2819944 Z M196.394844,83.2819944 L187.352844,83.2819944 L187.352844,91.0619944 L196.394844,91.0619944 L196.394844,83.2819944 Z M207.903844,83.2819944 L198.860844,83.2819944 L198.860844,91.0619944 L207.903844,91.0619944 L207.903844,83.2819944 Z M219.411844,83.2819944 L210.369844,83.2819944 L210.369844,91.0619944 L219.411844,91.0619944 L219.411844,83.2819944 Z M173.377844,83.2819944 L164.335844,83.2819944 L164.335844,91.0619944 L173.377844,91.0619944 L173.377844,83.2819944 Z M230.920844,83.2819944 L221.877844,83.2819944 L221.877844,91.0619944 L230.920844,91.0619944 L230.920844,83.2819944 Z M161.869844,83.2819944 L154.060844,83.2819944 L154.060946,91.0623726 L161.869844,91.0619944 L161.869844,83.2819944 Z M246.127844,83.2819944 L233.386844,83.2819944 L233.386844,91.0619944 L246.128743,91.0623726 L246.127844,83.2819944 Z M161.869844,71.8169944 L154.060844,71.8169944 L154.060844,80.8249944 L161.869844,80.8249944 L161.869844,71.8169944 Z M184.886844,71.8169944 L175.844844,71.8169944 L175.844844,80.8249944 L184.886844,80.8249944 L184.886844,71.8169944 Z M196.394844,71.8169944 L187.352844,71.8169944 L187.352844,80.8249944 L196.394844,80.8249944 L196.394844,71.8169944 Z M207.903844,71.8169944 L198.860844,71.8169944 L198.860844,80.8249944 L207.903844,80.8249944 L207.903844,71.8169944 Z M173.377844,71.8169944 L164.335844,71.8169944 L164.335844,80.8249944 L173.377844,80.8249944 L173.377844,71.8169944 Z M230.920844,71.8169944 L221.877844,71.8169944 L221.877844,80.8249944 L230.920844,80.8249944 L230.920844,71.8169944 Z M219.411844,71.8169944 L210.369844,71.8169944 L210.369844,80.8249944 L219.411844,80.8249944 L219.411844,71.8169944 Z M246.127844,71.8169944 L233.386844,71.8169944 L233.386844,80.8249944 L246.127844,80.8249944 L246.127844,71.8169944 Z M161.869844,60.3519944 L154.060844,60.3519944 L154.060844,69.3599944 L161.869844,69.3599944 L161.869844,60.3519944 Z M184.886844,60.3519944 L175.844844,60.3519944 L175.844844,69.3599944 L184.886844,69.3599944 L184.886844,60.3519944 Z M196.394844,60.3519944 L187.352844,60.3519944 L187.352844,69.3599944 L196.394844,69.3599944 L196.394844,60.3519944 Z M207.903844,60.3519944 L198.860844,60.3519944 L198.860844,69.3599944 L207.903844,69.3599944 L207.903844,60.3519944 Z M219.411844,60.3519944 L210.369844,60.3519944 L210.369844,69.3599944 L219.411844,69.3599944 L219.411844,60.3519944 Z M173.377844,60.3519944 L164.335844,60.3519944 L164.335844,69.3599944 L173.377844,69.3599944 L173.377844,60.3519944 Z M230.920844,60.3519944 L221.877844,60.3519944 L221.877844,69.3599944 L230.920844,69.3599944 L230.920844,60.3519944 Z M246.127844,60.3519944 L233.386844,60.3519944 L233.386844,69.3599944 L246.127844,69.3599944 L246.127844,60.3519944 Z M161.869844,50.1149944 L154.060946,50.1157894 L154.060844,57.8949944 L161.869844,57.8949944 L161.869844,50.1149944 Z M184.886844,50.1149944 L175.844844,50.1149944 L175.844844,57.8949944 L184.886844,57.8949944 L184.886844,50.1149944 Z M196.394844,50.1149944 L187.352844,50.1149944 L187.352844,57.8949944 L196.394844,57.8949944 L196.394844,50.1149944 Z M207.903844,50.1149944 L198.860844,50.1149944 L198.860844,57.8949944 L207.903844,57.8949944 L207.903844,50.1149944 Z M219.411844,50.1149944 L210.369844,50.1149944 L210.369844,57.8949944 L219.411844,57.8949944 L219.411844,50.1149944 Z M173.377844,50.1149944 L164.335844,50.1149944 L164.335844,57.8949944 L173.377844,57.8949944 L173.377844,50.1149944 Z M230.920844,50.1149944 L221.877844,50.1149944 L221.877844,57.8949944 L230.920844,57.8949944 L230.920844,50.1149944 Z M246.128743,50.1157894 L233.386844,50.1149944 L233.386844,57.8949944 L246.127844,57.8949944 L246.128743,50.1157894 Z" id="形状结合备份" fill="#000000" fill-rule="nonzero"></path>
                    </g>
                </g>
                <g id="男3备份-3" transform="translate(850.500000, 822.000000) rotate(5.000000) translate(-850.500000, -822.000000) translate(638.000000, 501.000000)">
                    <path d="M173.355964,188.802864 C173.01964,183.655564 175.501015,181.790704 180.800089,183.208282 C188.7487,185.334651 209.92134,193.658127 212.432258,204.366394 C229.450715,231.061036 243.076725,251.469878 253.310289,265.59292 C256.094871,268.959944 260.203715,269.536692 265.636819,267.323164 C271.069924,265.109636 277.764851,262.848282 285.7216,260.539102 L288.452436,281.499028 L248.241651,302.576649 L180.813657,216.913798 L173.355964,188.802864 Z" id="路径-58" fill="#FDC7E9" transform="translate(230.889146, 242.662888) rotate(-54.000000) translate(-230.889146, -242.662888) "></path>
                    <path d="M167.386323,228.227872 C167.852411,227.986289 168.426314,228.167858 168.668171,228.633418 C173.198634,237.354263 179.681175,242.959508 188.150098,245.499924 C188.653012,245.650783 188.938271,246.180308 188.78724,246.682652 C188.63621,247.184996 188.106083,247.46993 187.603169,247.319072 C178.626892,244.626465 171.741174,238.672607 166.980316,229.508266 C166.738459,229.042707 166.920234,228.469455 167.386323,228.227872 Z" id="路径-66" fill="#070707" fill-rule="nonzero" transform="translate(177.850465, 237.740197) rotate(126.000000) translate(-177.850465, -237.740197) "></path>
                    <path d="M334.301091,89.9647991 C336.775035,99.3085106 336.775161,106.823104 334.301471,112.50858 L346.04456,125.914591 L358.922946,115.46109 C355.223661,104.296485 355.223472,93.022432 358.922376,81.6389321 C347.500892,88.5448771 339.293797,91.3201661 334.301091,89.9647991 Z" id="路径-51" fill="#FDC7E9" transform="translate(346.612019, 103.776761) rotate(-1.000000) translate(-346.612019, -103.776761) "></path>
                    <g id="编组-51" transform="translate(321.999553, 30.203162)">
                        <path d="M4.65373862,12.4409721 C-3.14427071,46.9068051 1.05577998,64.2032979 17.2538907,64.3304504 C27.258303,64.4052627 34.1744537,59.2709298 38.0023427,48.9274518 C46.5798991,51.7296349 52.3465796,49.7974595 55.3023842,43.1309256 C58.2581889,36.4643916 56.3609612,31.7214549 49.6107013,28.9021153 C45.1140738,28.5425087 41.3609473,29.5191483 38.3513219,31.832034 L43.9648725,9.00292381 L11.2695607,0.857735936 L4.65373862,12.4409721 Z" id="路径-32" fill="#FDC7E9" transform="translate(28.752577, 32.594496) rotate(-1.000000) translate(-28.752577, -32.594496) "></path>
                        <path d="M38.7917387,40.403178 C41.891207,35.0722842 46.0812778,33.5642341 50.9724348,36.1291145 C51.4336514,36.3709725 51.6017929,36.9233294 51.3479893,37.3628383 C51.0941856,37.8023471 50.5145472,37.9625747 50.0533306,37.7207167 C46.1477291,35.6726532 43.0795567,36.7769203 40.4592968,41.2836052 C40.2041654,41.7224154 39.624045,41.881051 39.1635615,41.6379277 C38.703078,41.3948044 38.5366073,40.8419881 38.7917387,40.403178 Z" id="路径-86" fill="#070707" fill-rule="nonzero"></path>
                        <path d="M20.9177085,30.2684311 C22.7888439,27.5735609 25.2055621,26.6880345 27.9537929,27.749742 C28.3933634,27.9195587 28.6124159,28.4145346 28.4430603,28.8553018 C28.2737047,29.296069 27.7800725,29.5157178 27.340502,29.3459011 C25.3625286,28.5817625 23.7596185,29.1690959 22.3177017,31.2457914 C22.0485439,31.6334413 21.5169492,31.7289041 21.1303517,31.4590135 C20.7437542,31.189123 20.6485506,30.656081 20.9177085,30.2684311 Z" id="路径-387" fill="#000000" fill-rule="nonzero" transform="translate(24.632504, 29.462597) rotate(45.000000) translate(-24.632504, -29.462597) "></path>
                        <path d="M3.48862972,27.5626281 C5.35976518,24.8677578 7.77648334,23.9822314 10.5247141,25.0439389 C10.9642847,25.2137556 11.1833371,25.7087316 11.0139815,26.1494987 C10.8446259,26.5902659 10.3509938,26.8099147 9.91142325,26.6400981 C7.93344987,25.8759594 6.33053981,26.4632928 4.888623,28.5399884 C4.61946515,28.9276383 4.08787042,29.0231011 3.70127295,28.7532105 C3.31467548,28.4833199 3.21947186,27.950278 3.48862972,27.5626281 Z" id="路径-387备份-2" fill="#000000" fill-rule="nonzero" transform="translate(7.203425, 26.756794) rotate(45.000000) translate(-7.203425, -26.756794) "></path>
                        <path d="M10.1268118,37.9506501 C10.5728497,37.7987326 11.0572539,38.0381486 11.208759,38.4854007 C11.360264,38.9326528 11.121498,39.4183758 10.6754601,39.5702933 C8.97510338,40.1494234 8.3017927,40.9119611 8.39023497,41.9256128 C8.55195315,43.7790921 10.1322044,44.5947734 13.2907648,43.7828288 C13.7470749,43.665529 14.2118195,43.9413581 14.3288009,44.3989105 C14.4457822,44.8564628 14.1707019,45.3224726 13.7143918,45.4397724 C9.6297093,46.4897874 6.95563466,45.1095052 6.69084401,42.074695 C6.5233491,40.1550075 7.75710273,38.7577571 10.1268118,37.9506501 Z" id="路径-388" fill="#000000" fill-rule="nonzero"></path>
                        <path d="M18.648888,48.9075537 C19.1163516,48.9658611 19.4481666,49.3931143 19.3900176,49.8618505 C18.8875186,53.9124638 15.8228278,55.8072128 10.581782,55.5019211 C10.1115084,55.4745276 9.75242289,55.0700509 9.77974202,54.5984971 C9.80706116,54.1269433 10.2104397,53.7668802 10.6807133,53.7942737 C15.110447,54.0523064 17.3206576,52.6858409 17.697182,49.6507008 C17.7511776,49.2154457 18.1224312,48.8974714 18.5494695,48.9008953 L18.648888,48.9075537 Z" id="路径-389" fill="#000000" fill-rule="nonzero"></path>
                        <ellipse id="椭圆形" fill="#000000" cx="21.7592699" cy="35.677678" rx="2.98529412" ry="2.99342105"></ellipse>
                        <ellipse id="椭圆形备份-34" fill="#000000" cx="6.0682602" cy="33.7128793" rx="2.98529412" ry="2.99342105"></ellipse>
                    </g>
                    <path d="M313.43811,21.6351122 C312.6468,31.7225324 318.986146,44.2738144 335.814236,42.8455798 C348.002336,40.0387657 355.816634,42.1280669 359.257132,49.1134833 C361.043832,54.7711196 361.316068,59.5303389 360.07384,63.3911412 C365.975422,59.5065914 370.739465,59.1736133 374.365968,62.3922069 C378.491952,67.6554774 377.885422,73.3856453 372.546376,79.5827106 C380.152122,82.7863764 386.286477,81.6062308 390.949442,76.0422736 C405.753668,83.7891702 415.784142,83.4943238 421.040864,75.1577343 C428.925948,62.65285 420.047456,55.9413762 414.802878,53.4655784 C409.5583,50.9897805 402.027111,50.0358125 397.819424,36.0512738 C393.611737,22.0667352 389.669167,12.5074282 377.858715,6.27815984 C366.048262,0.0488914579 346.723989,-0.72491076 338.42071,9.61891806 C328.027603,6.61225682 314.229421,11.547692 313.43811,21.6351122 Z" id="路径-50" fill="#252424" transform="translate(368.771378, 41.667719) rotate(-1.000000) translate(-368.771378, -41.667719) "></path>
                    <g id="路径-61" transform="translate(256.623090, 545.962359) rotate(-1.000000) translate(-256.623090, -545.962359) translate(232.123090, 512.962359)">
                        <mask id="mask-8" fill="white">
                            <use xlink:href="#path-7"></use>
                        </mask>
                        <use id="蒙版" fill="#FDC7E9" transform="translate(24.640389, 32.923863) rotate(-10.000000) translate(-24.640389, -32.923863) " xlink:href="#path-7"></use>
                        <polygon fill="#070707" mask="url(#mask-8)" points="2.46214325 23.4266447 39.254172 13.9780246 33.8198085 5.48579797"></polygon>
                    </g>
                    <g id="路径-65" transform="translate(75.352446, 520.957266) rotate(-1.000000) translate(-75.352446, -520.957266) translate(54.852446, 489.957266)">
                        <mask id="mask-10" fill="white">
                            <use xlink:href="#path-9"></use>
                        </mask>
                        <use id="蒙版" fill="#FDC7E9" xlink:href="#path-9"></use>
                        <polygon fill="#070707" mask="url(#mask-10)" points="8.56551385 0 34.8206033 31.9793361 44.4929244 13.5609622"></polygon>
                    </g>
                    <path d="M259.690248,558.428005 C272.026383,560.161635 281.191779,556.364093 287.186437,547.035381 C297.566204,551.356014 303.678384,559.436136 305.522977,571.275745 L251.046401,634.818499 C243.636768,634.977467 239.931115,631.146473 239.929442,623.325517 C241.972714,612.828404 248.559649,591.1959 259.690248,558.428005 Z" id="路径-62" fill="#2A2561" transform="translate(272.726210, 590.929315) rotate(-15.000000) translate(-272.726210, -590.929315) "></path>
                    <path d="M54.8296533,530.54694 C61.333672,539.217581 69.7347426,542.1079 80.0328652,539.217896 C88.2242551,552.169217 90.1673417,562.569978 85.8621248,570.420178 L6.18066712,599.419705 C0.172089779,596.046078 -0.91273427,590.752906 2.92619498,583.540189 C6.76512423,576.327472 24.066277,558.663055 54.8296533,530.54694 Z" id="路径-63" fill="#2A2561" transform="translate(44.384136, 564.983322) rotate(-1.000000) translate(-44.384136, -564.983322) "></path>
                    <g id="路径-29" transform="translate(168.507552, 403.712265) rotate(-1.000000) translate(-168.507552, -403.712265) translate(45.007552, 290.712265)">
                        <mask id="mask-12" fill="white">
                            <use xlink:href="#path-11"></use>
                        </mask>
                        <use id="蒙版" fill="#61D8BA" xlink:href="#path-11"></use>
                        <path d="M48.3796883,191.575649 L113.533779,50.6574805 L217.440481,54.112607 C217.965293,54.1300582 218.376575,54.5691667 218.35964,55.0933835 C218.342881,55.5801561 217.962673,55.9691484 217.488246,56.0082629 L217.377213,56.0109637 L114.730984,52.5974645 L50.1060418,192.372025 C49.9016047,192.814191 49.3998899,193.0249 48.9475712,192.876671 L48.8442246,192.836034 C48.4015567,192.631829 48.1906078,192.130683 48.3390057,191.678878 L48.3796883,191.575649 Z" id="路径-48" fill="#FFFFFF" fill-rule="nonzero" mask="url(#mask-12)"></path>
                        <polygon fill="#070707" mask="url(#mask-12)" points="76.2954335 12.4822011 115.627497 146.773752 175.427707 71.7594635 168.505092 48.8938753 264.788328 79.6279764"></polygon>
                        <path d="M7.8052744,167.067244 C8.05873966,166.651178 8.58119404,166.498843 9.01369591,166.697505 L9.11174387,166.749621 L78.7529504,209.078412 C79.201531,209.351065 79.3438975,209.935327 79.0709349,210.383399 C78.8174696,210.799465 78.2950152,210.9518 77.8625134,210.753138 L77.7644654,210.701023 L8.12325891,168.372231 C7.67467833,168.099579 7.53231182,167.515316 7.8052744,167.067244 Z" id="路径-49" fill="#FFFFFF" fill-rule="nonzero" mask="url(#mask-12)"></path>
                        <path d="M6.51898518,170.901256 C6.77245043,170.48519 7.29490481,170.332855 7.72740669,170.531517 L7.82545464,170.583633 L77.4666612,212.912424 C77.9152417,213.185077 78.0576082,213.769339 77.7846457,214.217411 C77.5311804,214.633477 77.008726,214.785812 76.5762241,214.58715 L76.4781762,214.535034 L6.83696968,172.206243 C6.38838911,171.933591 6.24602259,171.349328 6.51898518,170.901256 Z" id="路径-49备份" fill="#FFFFFF" fill-rule="nonzero" mask="url(#mask-12)"></path>
                    </g>
                    <g id="路径-30" transform="translate(241.092690, 390.827960) rotate(-1.000000) translate(-241.092690, -390.827960) translate(120.092690, 237.827960)">
                        <mask id="mask-14" fill="white">
                            <use xlink:href="#path-13"></use>
                        </mask>
                        <use id="蒙版" fill="#61D8BA" xlink:href="#path-13"></use>
                        <path d="M202.385637,37.4492 C202.561703,36.9550555 203.105471,36.6970401 203.600177,36.8729064 C204.059547,37.0362109 204.315084,37.5162047 204.208278,37.9795818 L204.177126,38.0860683 L192.247701,71.5668013 C187.732591,83.7652323 178.300908,86.963423 164.458366,81.1178909 L164.037545,80.9379853 C150.492902,75.0771842 117.664395,65.0953784 65.6843974,51.0333627 C52.712951,48.5796317 50.8930207,57.1700062 60.6747255,78.3509378 L144.422385,257.58243 C144.644472,258.057716 144.438775,258.622844 143.962949,258.844679 C143.487123,259.066514 142.921353,258.861051 142.699266,258.385765 L59.2515733,79.7999743 C48.6024173,57.0097897 50.7100022,46.2675771 66.1098134,49.1835518 L72.275064,50.8563735 C119.844895,63.8056778 150.386605,73.1253083 163.950682,78.8355051 L164.793417,79.195084 C177.795728,84.8212168 186.142099,82.1847709 190.334403,71.2528417 L190.460172,70.9190319 L202.385637,37.4492 Z" fill="#FFFFFF" fill-rule="nonzero" mask="url(#mask-14)"></path>
                        <path d="M169.320384,245.953659 C169.802438,245.745672 170.362018,245.967404 170.570241,246.448911 C170.763591,246.896025 170.585998,247.409909 170.173681,247.647566 L170.074427,247.69735 L86.9916021,283.544242 C86.509548,283.752229 85.9499676,283.530497 85.7417444,283.04899 C85.5483942,282.601876 85.7259879,282.087992 86.1383045,281.850335 L86.2375591,281.80055 L169.320384,245.953659 Z" id="路径-31" fill="#FFFFFF" fill-rule="nonzero" mask="url(#mask-14)"></path>
                        <path d="M169.320384,250.913033 C169.802438,250.705046 170.362018,250.926778 170.570241,251.408285 C170.763591,251.855399 170.585998,252.369284 170.173681,252.60694 L170.074427,252.656725 L86.9916021,288.503617 C86.509548,288.711604 85.9499676,288.489872 85.7417444,288.008365 C85.5483942,287.561251 85.7259879,287.047366 86.1383045,286.809709 L86.2375591,286.759925 L169.320384,250.913033 Z" id="路径-31备份" fill="#FFFFFF" fill-rule="nonzero" mask="url(#mask-14)"></path>
                        <path d="M182.861045,31.5160478 C183.061755,31.031368 183.61782,30.8009807 184.10305,31.0014632 C184.588281,31.2019457 184.81893,31.7573795 184.61822,32.2420592 C176.604982,51.592609 179.504843,62.4498217 193.174777,65.5014148 C193.687238,65.6158134 194.009826,66.1235123 193.895298,66.6353918 C193.780769,67.1472713 193.272494,67.4694932 192.760033,67.3550945 C177.705471,63.9944058 174.453484,51.8188177 182.861045,31.5160478 Z" id="路径-33" fill="#FFFFFF" fill-rule="nonzero" mask="url(#mask-14)"></path>
                        <path d="M218.354601,70.9597423 L211.417708,93.6184555 C211.34036,93.8711067 211.371872,94.1445227 211.504673,94.3730084 L218.441566,106.308027 C218.647362,106.662103 219.057166,106.844586 219.458379,106.760806 L235.856322,103.33667 C236.213413,103.262103 236.496304,102.990025 236.584405,102.636413 L242.150483,80.2958866 C242.265029,79.8361338 242.022824,79.3623767 241.582805,79.1854984 L219.618785,70.3564297 C219.101813,70.1486179 218.517563,70.4274423 218.354601,70.9597423 Z M219.869519,72.504213 L240.105034,80.638429 L234.882383,101.598399 L219.741163,104.760914 L213.356655,93.7775858 L219.869519,72.504213 Z" id="路径-34" fill="#FFFFFF" fill-rule="nonzero" mask="url(#mask-14)"></path>
                        <path d="M217.23704,76.9461918 C217.401956,76.4878529 217.883287,76.234098 218.346856,76.3422227 L218.453367,76.37367 L236.314715,82.7858396 C236.808872,82.9632403 237.06549,83.5071903 236.887888,84.000786 C236.722971,84.4591249 236.241641,84.7128798 235.778071,84.6047551 L235.671561,84.5733078 L217.810212,78.1611382 C217.316056,77.9837375 217.059438,77.4397875 217.23704,76.9461918 Z" id="路径-46" fill="#FFFFFF" fill-rule="nonzero" mask="url(#mask-14)"></path>
                        <path d="M227.044525,80.923391 C227.219075,80.4287102 227.76205,80.1690323 228.257292,80.3433842 C228.717161,80.5052824 228.974169,80.9844922 228.868783,81.4481939 L228.837958,81.5547752 L220.160538,106.14689 C219.985988,106.641571 219.443014,106.901249 218.947771,106.726897 C218.487903,106.564999 218.230895,106.085789 218.33628,105.622087 L218.367106,105.515506 L227.044525,80.923391 Z" id="路径-47" fill="#FFFFFF" fill-rule="nonzero" mask="url(#mask-14)"></path>
                        <path d="M84.6106215,73.5608739 C85.092225,73.484753 85.5465206,73.7841338 85.6746723,74.2420797 L85.6983202,74.3504756 L88.2871655,90.6924852 C88.369235,91.2105466 88.0153167,91.6969733 87.4966668,91.7789497 C87.0150633,91.8550706 86.5607677,91.5556898 86.432616,91.0977439 L86.4089681,90.989348 L83.8201228,74.6473384 C83.7380533,74.129277 84.0919716,73.6428503 84.6106215,73.5608739 Z" id="路径-54" fill="#070707" fill-rule="nonzero" mask="url(#mask-14)"></path>
                        <path d="M74.6413945,79.3463659 C75.0089546,79.0307438 75.5487231,79.0450183 75.8988275,79.3619138 L75.9821928,79.4474265 L83.2699813,87.9152239 C83.6122938,88.3129622 83.566996,88.9125769 83.1688059,89.2545008 C82.8012459,89.570123 82.2614773,89.5558485 81.9113729,89.2389529 L81.8280076,89.1534402 L74.5402191,80.6856428 C74.1979067,80.2879046 74.2432045,79.6882899 74.6413945,79.3463659 Z" id="路径-56" fill="#070707" fill-rule="nonzero" mask="url(#mask-14)"></path>
                    </g>
                    <g id="路径-60" transform="translate(291.281454, 207.689276) rotate(-1.000000) translate(-291.281454, -207.689276) translate(254.281454, 170.189276)">
                        <mask id="mask-16" fill="white">
                            <use xlink:href="#path-15"></use>
                        </mask>
                        <use id="蒙版" fill="#FF9595" transform="translate(37.009850, 37.653912) rotate(-50.000000) translate(-37.009850, -37.653912) " xlink:href="#path-15"></use>
                        <polygon fill="#070707" mask="url(#mask-16)" transform="translate(28.848427, 52.767220) scale(1, -1) translate(-28.848427, -52.767220) " points="44.1217328 74.4989724 23.8452105 31.0354673 29.9077657 69.0083653 13.5751205 69.8647557"></polygon>
                        <path d="M13.5751205,45.8758133 L42.5121584,65.3799839 C23.2207998,67.2541534 13.5751205,68.1912381 13.5751205,68.1912381 C13.5751205,68.1912381 13.5751205,60.7527632 13.5751205,45.8758133 Z" id="路径-80" fill="#FCF3F3" mask="url(#mask-16)"></path>
                    </g>
                    <path d="M262.106232,144.16931 L227.45312,153.192806 C223.248619,154.188262 219.22097,151.909197 215.370174,146.355611 C211.519378,140.802026 197.336727,121.247055 172.822224,87.6906997 C172.141237,77.6683535 168.191721,69.8620152 160.973674,64.2716848 C150.146605,55.8861891 139.023572,55.3538559 125.576495,53.5921095 C112.129417,51.830363 114.261306,60.2266602 118.230961,61.291266 C120.877398,62.0010032 122.557038,62.5392441 123.269883,62.9059889 C121.299928,62.9059557 118.048268,62.905901 113.514903,62.9058248 C106.714857,62.9057104 103.798785,70.2666399 111.552274,71.519331 C116.721267,72.3544583 120.627197,73.0544688 123.270063,73.6193623 C118.262001,73.2265431 113.734897,73.0300995 109.688749,73.0300314 C103.619528,73.0299293 104.451359,77.5889451 108.669501,79.2988811 C111.481596,80.4388384 115.38292,81.846027 120.373474,83.5204468 C133.845295,100.408506 143.375722,108.852583 148.964754,108.852677 L185.062537,184.810727 C193.855915,205.845641 206.941913,215.206377 224.320532,212.892937 C241.699151,210.579498 258.691111,207.688559 275.296412,204.220123 L296.138396,153.193961 L262.106232,144.16931 Z" id="路径-57" fill="#FDC7E9" transform="translate(200.729720, 133.293405) rotate(-1.000000) translate(-200.729720, -133.293405) "></path>
                    <g id="路径-59" transform="translate(320.280844, 202.734040) rotate(-1.000000) translate(-320.280844, -202.734040) translate(254.280844, 106.234040)">
                        <mask id="mask-18" fill="white">
                            <use xlink:href="#path-17"></use>
                        </mask>
                        <use id="蒙版" fill="#FF9595" xlink:href="#path-17"></use>
                        <path d="M21.7731809,107.593176 C38.2338973,108.883221 47.8028329,116.586661 50.0869409,130.534022 C52.2670314,143.846225 50.5788712,156.234059 45.0201855,167.656164 L44.718696,168.267139 L42.1671777,166.993576 C47.6933239,155.947334 49.3957326,143.962003 47.2720051,130.993968 C45.2350349,118.555695 36.9474416,111.770128 22.0284604,110.47309 L21.5500708,110.433559 L21.7731809,107.593176 Z" id="路径-84" fill="#000000" fill-rule="nonzero" mask="url(#mask-18)"></path>
                        <path d="M114.097954,6.82380089 L74.6441715,-28.9899528 L65.027493,-21.8351059 C48.0666412,-9.17787884 35.0777996,0.737185775 26.0581034,7.91248013 L22.3678533,10.865046 C12.0328831,19.1878594 9.17699047,22.0739522 10.5463144,23.836103 C11.5559465,25.1353749 15.7236815,28.5425901 20.3129473,31.4148891 C27.3050275,35.7910456 35.1455366,39.1034469 43.5669849,40.7158917 C67.2374232,45.2480425 91.0459966,35.8089253 113.267814,7.8676036 L114.097954,6.82380089 Z M74.4615213,-25.3048669 L110.198602,7.13417751 L109.738431,7.70149983 C88.5479813,33.5806867 66.2541906,42.1588005 44.1039649,37.917723 C36.0565477,36.3768935 28.5379289,33.2004821 21.827442,29.0005673 C19.3766852,27.466704 17.1793943,25.88178 15.3332378,24.3725063 L15.1421452,24.2154175 C14.5353128,23.7138165 13.9910391,23.2376989 13.5768955,22.8580877 L13.3518456,22.6494941 L13.3805828,22.6150097 C13.8806506,22.015681 14.7351817,21.1590872 15.9315961,20.063728 L16.4230986,19.6175993 C18.8824217,17.4033073 22.5556362,14.3481332 27.4357721,10.4590802 L29.9844986,8.43868155 C39.8466103,0.659218154 53.8981998,-10.0133456 72.1361672,-23.576421 L74.4615213,-25.3048669 Z" id="路径-83" fill="#000000" fill-rule="nonzero" mask="url(#mask-18)"></path>
                        <path d="M108.996456,105.19047 C126.336436,105.214044 140.427733,130.885702 140.470441,162.529756 C140.512763,194.173809 126.490397,219.807299 109.150417,219.783789 C91.8104366,219.760216 77.7191399,194.088558 77.6764323,162.444504 C77.6341095,130.800451 91.6564756,105.166961 108.996456,105.19047 Z M108.989999,109.938991 C95.0558451,109.920098 82.3910735,133.071802 82.4303475,162.438117 C82.4699938,191.812198 95.2068645,215.016305 109.156874,215.035269 C123.091028,215.054162 135.755799,191.902458 135.716525,162.536143 C135.677275,133.455803 123.193476,110.422654 109.408115,109.94651 L108.989999,109.938991 Z" id="椭圆形" fill="#000000" fill-rule="nonzero" mask="url(#mask-18)" transform="translate(109.073436, 162.487130) rotate(6.000000) translate(-109.073436, -162.487130) "></path>
                        <polygon fill="#070707" mask="url(#mask-18)" points="29.5732887 97.2464237 48.8187607 93.0226298 27.0835758 104.667407"></polygon>
                        <polygon id="路径-67" fill="#FCF3F3" mask="url(#mask-18)" points="20.9681963 137.530571 116.095821 184.845118 106.517783 201.179689 20.9681963 165.83954 11.2032421 150.652462"></polygon>
                        <polygon id="路径-79" fill="#FCF3F3" mask="url(#mask-18)" points="4.55705315 28.7359856 19.8074309 109.013367 -1.15463195e-13 109.013367 -15.9113411 29.6720018"></polygon>
                    </g>
                    <path d="M32.1362272,539.613025 C32.5306753,539.331645 33.0669802,539.394274 33.387183,539.741291 L33.4625244,539.833935 L45.7731899,557.052289 C46.0783648,557.479123 45.9793477,558.072252 45.5520288,558.377081 C45.1575807,558.658461 44.6212758,558.595832 44.301073,558.248815 L44.2257316,558.156171 L31.9150661,540.937818 C31.6098912,540.510984 31.7089084,539.917854 32.1362272,539.613025 Z" id="路径-81" fill="#357EF9" fill-rule="nonzero" transform="translate(38.844128, 548.995053) rotate(-1.000000) translate(-38.844128, -548.995053) "></path>
                    <path d="M27.2119407,545.762451 C27.6063888,545.48107 28.1426937,545.5437 28.4628965,545.890716 L28.5382379,545.983361 L40.8489034,563.201714 C41.1540783,563.628548 41.0550612,564.221678 40.6277423,564.526506 C40.2332942,564.807887 39.6969893,564.745257 39.3767865,564.398241 L39.3014451,564.305596 L26.9907796,547.087243 C26.6856047,546.660409 26.7846219,546.067279 27.2119407,545.762451 Z" id="路径-81备份" fill="#357EF9" fill-rule="nonzero" transform="translate(33.919842, 555.144478) rotate(-1.000000) translate(-33.919842, -555.144478) "></path>
                    <path d="M114.251906,62.9457431 C114.37756,62.4751508 114.835765,62.1817754 115.306809,62.2504872 L115.415594,62.2728555 L133.881654,67.1923404 C134.389022,67.3275066 134.690626,67.8479163 134.555306,68.354708 C134.429652,68.8253002 133.971447,69.1186756 133.500403,69.0499638 L133.391618,69.0275955 L114.925558,64.1081106 C114.41819,63.9729445 114.116586,63.4525348 114.251906,62.9457431 Z" id="路径-52" fill="#070707" fill-rule="nonzero" transform="translate(124.403606, 65.650226) rotate(-1.000000) translate(-124.403606, -65.650226) "></path>
                    <path d="M105.628156,71.5796854 C105.74111,71.1058917 106.191262,70.8003287 106.663983,70.8563777 L106.77333,70.8758193 L132.625817,77.0251672 C133.136636,77.1466721 133.452126,77.6588021 133.330483,78.1690415 C133.217529,78.6428353 132.767377,78.9483983 132.294656,78.8923492 L132.185309,78.8729076 L106.332822,72.7235597 C105.822003,72.6020548 105.506513,72.0899248 105.628156,71.5796854 Z" id="路径-222" fill="#070707" fill-rule="nonzero" transform="translate(119.479320, 74.874363) rotate(-1.000000) translate(-119.479320, -74.874363) "></path>
                    <path d="M354.883831,91.151844 C355.064048,90.9611286 355.364924,90.9524522 355.555856,91.1324648 C355.746788,91.3124774 355.755474,91.6130119 355.575257,91.8037274 C352.157237,95.4208604 345.878269,97.0862435 336.751154,96.8502759 C336.48869,96.8434903 336.281428,96.6254622 336.288059,96.3632964 C336.295015,96.1011307 336.513291,95.8941041 336.775754,95.9008897 C345.659174,96.130557 351.690932,94.530742 354.883831,91.151844 Z" id="路径-223" fill="#070707" fill-rule="nonzero" transform="translate(345.996421, 93.937580) rotate(-1.000000) translate(-345.996421, -93.937580) "></path>
                    <path d="M257.974875,585.556827 C258.499978,585.556827 258.925661,585.982021 258.925661,586.506528 C258.925661,586.99357 258.558623,587.394984 258.085762,587.449845 L257.974881,587.456235 L246.895236,587.456268 C246.370133,587.456268 245.94445,587.031074 245.94445,586.506567 C245.94445,586.019524 246.311488,585.618111 246.784349,585.563249 L246.89523,585.55686 L257.974875,585.556827 Z" id="路径-82" fill="#357EF9" fill-rule="nonzero" transform="translate(252.435055, 586.506547) rotate(-1.000000) translate(-252.435055, -586.506547) "></path>
                    <path d="M257.974875,590.476367 C258.499978,590.476367 258.925661,590.901561 258.925661,591.426068 C258.925661,591.913111 258.558623,592.314524 258.085762,592.369386 L257.974881,592.375775 L246.895236,592.375808 C246.370133,592.375808 245.94445,591.950614 245.94445,591.426107 C245.94445,590.939065 246.311488,590.537651 246.784349,590.48279 L246.89523,590.4764 L257.974875,590.476367 Z" id="路径-82备份" fill="#357EF9" fill-rule="nonzero" transform="translate(252.435055, 591.426088) rotate(-1.000000) translate(-252.435055, -591.426088) "></path>
                    <path d="M403.035483,43.7537101 C400.779159,40.5728768 400.215057,38.5406389 401.343178,37.6569962 C403.035358,36.3315321 406.374302,39.8010722 407.599451,41.7774398 C408.8246,43.7538074 410.395449,45.9071066 408.552186,46.9860323 C407.323344,47.7053161 405.484443,46.6278753 403.035483,43.7537101 Z" id="路径-224" fill="#252424" transform="translate(405.087937, 42.282408) rotate(-1.000000) translate(-405.087937, -42.282408) "></path>
                </g>
            </g>
        </g>
    </g>
</svg>